<svg xmlns="http://www.w3.org/2000/svg" viewBox="0 0 720 720" width="720" height="720">
  <rect width="720" height="720" fill="#1a1a2e"/>
  <text x="360.0" y="40" fill="#ffffff" font-family="sans-serif" font-size="24" font-weight="bold" text-anchor="middle">Feature Correlation Heatmap</text>
  <text x="170" y="205.0" fill="#a0a0b0" font-family="sans-serif" font-size="14" text-anchor="end">Alcohol</text>
  <text x="200.0" y="170" fill="#a0a0b0" font-family="sans-serif" font-size="14" text-anchor="start" transform="rotate(-45 200.0 170)">Alcohol</text>
  <rect x="180" y="180" width="40" height="40" fill="rgb(255, 50, 50)" stroke="#1a1a2e" stroke-width="1"/>
  <text x="200.0" y="204.0" fill="#ffffff" font-family="sans-serif" font-size="11" text-anchor="middle">1.00</text>
  <rect x="220" y="180" width="40" height="40" fill="rgb(24, 50, 50)" stroke="#1a1a2e" stroke-width="1"/>
  <text x="240.0" y="204.0" fill="#888888" font-family="sans-serif" font-size="11" text-anchor="middle">0.09</text>
  <rect x="260" y="180" width="40" height="40" fill="rgb(53, 50, 50)" stroke="#1a1a2e" stroke-width="1"/>
  <text x="280.0" y="204.0" fill="#888888" font-family="sans-serif" font-size="11" text-anchor="middle">0.21</text>
  <rect x="300" y="180" width="40" height="40" fill="rgb(50, 50, 79)" stroke="#1a1a2e" stroke-width="1"/>
  <text x="320.0" y="204.0" fill="#888888" font-family="sans-serif" font-size="11" text-anchor="middle">-0.31</text>
  <rect x="340" y="180" width="40" height="40" fill="rgb(69, 50, 50)" stroke="#1a1a2e" stroke-width="1"/>
  <text x="360.0" y="204.0" fill="#888888" font-family="sans-serif" font-size="11" text-anchor="middle">0.27</text>
  <rect x="380" y="180" width="40" height="40" fill="rgb(73, 50, 50)" stroke="#1a1a2e" stroke-width="1"/>
  <text x="400.0" y="204.0" fill="#888888" font-family="sans-serif" font-size="11" text-anchor="middle">0.29</text>
  <rect x="420" y="180" width="40" height="40" fill="rgb(60, 50, 50)" stroke="#1a1a2e" stroke-width="1"/>
  <text x="440.0" y="204.0" fill="#888888" font-family="sans-serif" font-size="11" text-anchor="middle">0.24</text>
  <rect x="460" y="180" width="40" height="40" fill="rgb(50, 50, 39)" stroke="#1a1a2e" stroke-width="1"/>
  <text x="480.0" y="204.0" fill="#888888" font-family="sans-serif" font-size="11" text-anchor="middle">-0.16</text>
  <rect x="500" y="180" width="40" height="40" fill="rgb(34, 50, 50)" stroke="#1a1a2e" stroke-width="1"/>
  <text x="520.0" y="204.0" fill="#888888" font-family="sans-serif" font-size="11" text-anchor="middle">0.14</text>
  <rect x="540" y="180" width="40" height="40" fill="rgb(139, 50, 50)" stroke="#1a1a2e" stroke-width="1"/>
  <text x="560.0" y="204.0" fill="#ffffff" font-family="sans-serif" font-size="11" text-anchor="middle">0.55</text>
  <rect x="580" y="180" width="40" height="40" fill="rgb(50, 50, 18)" stroke="#1a1a2e" stroke-width="1"/>
  <text x="600.0" y="204.0" fill="#888888" font-family="sans-serif" font-size="11" text-anchor="middle">-0.07</text>
  <rect x="620" y="180" width="40" height="40" fill="rgb(18, 50, 50)" stroke="#1a1a2e" stroke-width="1"/>
  <text x="640.0" y="204.0" fill="#888888" font-family="sans-serif" font-size="11" text-anchor="middle">0.07</text>
  <rect x="660" y="180" width="40" height="40" fill="rgb(164, 50, 50)" stroke="#1a1a2e" stroke-width="1"/>
  <text x="680.0" y="204.0" fill="#ffffff" font-family="sans-serif" font-size="11" text-anchor="middle">0.64</text>
  <text x="170" y="245.0" fill="#a0a0b0" font-family="sans-serif" font-size="14" text-anchor="end">Malic_acid</text>
  <text x="240.0" y="170" fill="#a0a0b0" font-family="sans-serif" font-size="14" text-anchor="start" transform="rotate(-45 240.0 170)">Malic_acid</text>
  <rect x="180" y="220" width="40" height="40" fill="rgb(24, 50, 50)" stroke="#1a1a2e" stroke-width="1"/>
  <text x="200.0" y="244.0" fill="#888888" font-family="sans-serif" font-size="11" text-anchor="middle">0.09</text>
  <rect x="220" y="220" width="40" height="40" fill="rgb(255, 50, 50)" stroke="#1a1a2e" stroke-width="1"/>
  <text x="240.0" y="244.0" fill="#ffffff" font-family="sans-serif" font-size="11" text-anchor="middle">1.00</text>
  <rect x="260" y="220" width="40" height="40" fill="rgb(41, 50, 50)" stroke="#1a1a2e" stroke-width="1"/>
  <text x="280.0" y="244.0" fill="#888888" font-family="sans-serif" font-size="11" text-anchor="middle">0.16</text>
  <rect x="300" y="220" width="40" height="40" fill="rgb(73, 50, 50)" stroke="#1a1a2e" stroke-width="1"/>
  <text x="320.0" y="244.0" fill="#888888" font-family="sans-serif" font-size="11" text-anchor="middle">0.29</text>
  <rect x="340" y="220" width="40" height="40" fill="rgb(50, 50, 13)" stroke="#1a1a2e" stroke-width="1"/>
  <text x="360.0" y="244.0" fill="#888888" font-family="sans-serif" font-size="11" text-anchor="middle">-0.05</text>
  <rect x="380" y="220" width="40" height="40" fill="rgb(50, 50, 85)" stroke="#1a1a2e" stroke-width="1"/>
  <text x="400.0" y="244.0" fill="#888888" font-family="sans-serif" font-size="11" text-anchor="middle">-0.34</text>
  <rect x="420" y="220" width="40" height="40" fill="rgb(50, 50, 104)" stroke="#1a1a2e" stroke-width="1"/>
  <text x="440.0" y="244.0" fill="#ffffff" font-family="sans-serif" font-size="11" text-anchor="middle">-0.41</text>
  <rect x="460" y="220" width="40" height="40" fill="rgb(74, 50, 50)" stroke="#1a1a2e" stroke-width="1"/>
  <text x="480.0" y="244.0" fill="#888888" font-family="sans-serif" font-size="11" text-anchor="middle">0.29</text>
  <rect x="500" y="220" width="40" height="40" fill="rgb(50, 50, 56)" stroke="#1a1a2e" stroke-width="1"/>
  <text x="520.0" y="244.0" fill="#888888" font-family="sans-serif" font-size="11" text-anchor="middle">-0.22</text>
  <rect x="540" y="220" width="40" height="40" fill="rgb(63, 50, 50)" stroke="#1a1a2e" stroke-width="1"/>
  <text x="560.0" y="244.0" fill="#888888" font-family="sans-serif" font-size="11" text-anchor="middle">0.25</text>
  <rect x="580" y="220" width="40" height="40" fill="rgb(50, 50, 143)" stroke="#1a1a2e" stroke-width="1"/>
  <text x="600.0" y="244.0" fill="#ffffff" font-family="sans-serif" font-size="11" text-anchor="middle">-0.56</text>
  <rect x="620" y="220" width="40" height="40" fill="rgb(50, 50, 94)" stroke="#1a1a2e" stroke-width="1"/>
  <text x="640.0" y="244.0" fill="#888888" font-family="sans-serif" font-size="11" text-anchor="middle">-0.37</text>
  <rect x="660" y="220" width="40" height="40" fill="rgb(50, 50, 48)" stroke="#1a1a2e" stroke-width="1"/>
  <text x="680.0" y="244.0" fill="#888888" font-family="sans-serif" font-size="11" text-anchor="middle">-0.19</text>
  <text x="170" y="285.0" fill="#a0a0b0" font-family="sans-serif" font-size="14" text-anchor="end">Ash</text>
  <text x="280.0" y="170" fill="#a0a0b0" font-family="sans-serif" font-size="14" text-anchor="start" transform="rotate(-45 280.0 170)">Ash</text>
  <rect x="180" y="260" width="40" height="40" fill="rgb(53, 50, 50)" stroke="#1a1a2e" stroke-width="1"/>
  <text x="200.0" y="284.0" fill="#888888" font-family="sans-serif" font-size="11" text-anchor="middle">0.21</text>
  <rect x="220" y="260" width="40" height="40" fill="rgb(41, 50, 50)" stroke="#1a1a2e" stroke-width="1"/>
  <text x="240.0" y="284.0" fill="#888888" font-family="sans-serif" font-size="11" text-anchor="middle">0.16</text>
  <rect x="260" y="260" width="40" height="40" fill="rgb(255, 50, 50)" stroke="#1a1a2e" stroke-width="1"/>
  <text x="280.0" y="284.0" fill="#ffffff" font-family="sans-serif" font-size="11" text-anchor="middle">1.00</text>
  <rect x="300" y="260" width="40" height="40" fill="rgb(113, 50, 50)" stroke="#1a1a2e" stroke-width="1"/>
  <text x="320.0" y="284.0" fill="#ffffff" font-family="sans-serif" font-size="11" text-anchor="middle">0.44</text>
  <rect x="340" y="260" width="40" height="40" fill="rgb(73, 50, 50)" stroke="#1a1a2e" stroke-width="1"/>
  <text x="360.0" y="284.0" fill="#888888" font-family="sans-serif" font-size="11" text-anchor="middle">0.29</text>
  <rect x="380" y="260" width="40" height="40" fill="rgb(32, 50, 50)" stroke="#1a1a2e" stroke-width="1"/>
  <text x="400.0" y="284.0" fill="#888888" font-family="sans-serif" font-size="11" text-anchor="middle">0.13</text>
  <rect x="420" y="260" width="40" height="40" fill="rgb(29, 50, 50)" stroke="#1a1a2e" stroke-width="1"/>
  <text x="440.0" y="284.0" fill="#888888" font-family="sans-serif" font-size="11" text-anchor="middle">0.12</text>
  <rect x="460" y="260" width="40" height="40" fill="rgb(47, 50, 50)" stroke="#1a1a2e" stroke-width="1"/>
  <text x="480.0" y="284.0" fill="#888888" font-family="sans-serif" font-size="11" text-anchor="middle">0.19</text>
  <rect x="500" y="260" width="40" height="40" fill="rgb(2, 50, 50)" stroke="#1a1a2e" stroke-width="1"/>
  <text x="520.0" y="284.0" fill="#888888" font-family="sans-serif" font-size="11" text-anchor="middle">0.01</text>
  <rect x="540" y="260" width="40" height="40" fill="rgb(66, 50, 50)" stroke="#1a1a2e" stroke-width="1"/>
  <text x="560.0" y="284.0" fill="#888888" font-family="sans-serif" font-size="11" text-anchor="middle">0.26</text>
  <rect x="580" y="260" width="40" height="40" fill="rgb(50, 50, 19)" stroke="#1a1a2e" stroke-width="1"/>
  <text x="600.0" y="284.0" fill="#888888" font-family="sans-serif" font-size="11" text-anchor="middle">-0.07</text>
  <rect x="620" y="260" width="40" height="40" fill="rgb(0, 50, 50)" stroke="#1a1a2e" stroke-width="1"/>
  <text x="640.0" y="284.0" fill="#888888" font-family="sans-serif" font-size="11" text-anchor="middle">0.00</text>
  <rect x="660" y="260" width="40" height="40" fill="rgb(57, 50, 50)" stroke="#1a1a2e" stroke-width="1"/>
  <text x="680.0" y="284.0" fill="#888888" font-family="sans-serif" font-size="11" text-anchor="middle">0.22</text>
  <text x="170" y="325.0" fill="#a0a0b0" font-family="sans-serif" font-size="14" text-anchor="end">Alcalinity_of_ash</text>
  <text x="320.0" y="170" fill="#a0a0b0" font-family="sans-serif" font-size="14" text-anchor="start" transform="rotate(-45 320.0 170)">Alcalinity_of_ash</text>
  <rect x="180" y="300" width="40" height="40" fill="rgb(50, 50, 79)" stroke="#1a1a2e" stroke-width="1"/>
  <text x="200.0" y="324.0" fill="#888888" font-family="sans-serif" font-size="11" text-anchor="middle">-0.31</text>
  <rect x="220" y="300" width="40" height="40" fill="rgb(73, 50, 50)" stroke="#1a1a2e" stroke-width="1"/>
  <text x="240.0" y="324.0" fill="#888888" font-family="sans-serif" font-size="11" text-anchor="middle">0.29</text>
  <rect x="260" y="300" width="40" height="40" fill="rgb(113, 50, 50)" stroke="#1a1a2e" stroke-width="1"/>
  <text x="280.0" y="324.0" fill="#ffffff" font-family="sans-serif" font-size="11" text-anchor="middle">0.44</text>
  <rect x="300" y="300" width="40" height="40" fill="rgb(255, 50, 50)" stroke="#1a1a2e" stroke-width="1"/>
  <text x="320.0" y="324.0" fill="#ffffff" font-family="sans-serif" font-size="11" text-anchor="middle">1.00</text>
  <rect x="340" y="300" width="40" height="40" fill="rgb(50, 50, 21)" stroke="#1a1a2e" stroke-width="1"/>
  <text x="360.0" y="324.0" fill="#888888" font-family="sans-serif" font-size="11" text-anchor="middle">-0.08</text>
  <rect x="380" y="300" width="40" height="40" fill="rgb(50, 50, 81)" stroke="#1a1a2e" stroke-width="1"/>
  <text x="400.0" y="324.0" fill="#888888" font-family="sans-serif" font-size="11" text-anchor="middle">-0.32</text>
  <rect x="420" y="300" width="40" height="40" fill="rgb(50, 50, 89)" stroke="#1a1a2e" stroke-width="1"/>
  <text x="440.0" y="324.0" fill="#888888" font-family="sans-serif" font-size="11" text-anchor="middle">-0.35</text>
  <rect x="460" y="300" width="40" height="40" fill="rgb(92, 50, 50)" stroke="#1a1a2e" stroke-width="1"/>
  <text x="480.0" y="324.0" fill="#888888" font-family="sans-serif" font-size="11" text-anchor="middle">0.36</text>
  <rect x="500" y="300" width="40" height="40" fill="rgb(50, 50, 50)" stroke="#1a1a2e" stroke-width="1"/>
  <text x="520.0" y="324.0" fill="#888888" font-family="sans-serif" font-size="11" text-anchor="middle">-0.20</text>
  <rect x="540" y="300" width="40" height="40" fill="rgb(4, 50, 50)" stroke="#1a1a2e" stroke-width="1"/>
  <text x="560.0" y="324.0" fill="#888888" font-family="sans-serif" font-size="11" text-anchor="middle">0.02</text>
  <rect x="580" y="300" width="40" height="40" fill="rgb(50, 50, 69)" stroke="#1a1a2e" stroke-width="1"/>
  <text x="600.0" y="324.0" fill="#888888" font-family="sans-serif" font-size="11" text-anchor="middle">-0.27</text>
  <rect x="620" y="300" width="40" height="40" fill="rgb(50, 50, 70)" stroke="#1a1a2e" stroke-width="1"/>
  <text x="640.0" y="324.0" fill="#888888" font-family="sans-serif" font-size="11" text-anchor="middle">-0.28</text>
  <rect x="660" y="300" width="40" height="40" fill="rgb(50, 50, 112)" stroke="#1a1a2e" stroke-width="1"/>
  <text x="680.0" y="324.0" fill="#ffffff" font-family="sans-serif" font-size="11" text-anchor="middle">-0.44</text>
  <text x="170" y="365.0" fill="#a0a0b0" font-family="sans-serif" font-size="14" text-anchor="end">Magnesium</text>
  <text x="360.0" y="170" fill="#a0a0b0" font-family="sans-serif" font-size="14" text-anchor="start" transform="rotate(-45 360.0 170)">Magnesium</text>
  <rect x="180" y="340" width="40" height="40" fill="rgb(69, 50, 50)" stroke="#1a1a2e" stroke-width="1"/>
  <text x="200.0" y="364.0" fill="#888888" font-family="sans-serif" font-size="11" text-anchor="middle">0.27</text>
  <rect x="220" y="340" width="40" height="40" fill="rgb(50, 50, 13)" stroke="#1a1a2e" stroke-width="1"/>
  <text x="240.0" y="364.0" fill="#888888" font-family="sans-serif" font-size="11" text-anchor="middle">-0.05</text>
  <rect x="260" y="340" width="40" height="40" fill="rgb(73, 50, 50)" stroke="#1a1a2e" stroke-width="1"/>
  <text x="280.0" y="364.0" fill="#888888" font-family="sans-serif" font-size="11" text-anchor="middle">0.29</text>
  <rect x="300" y="340" width="40" height="40" fill="rgb(50, 50, 21)" stroke="#1a1a2e" stroke-width="1"/>
  <text x="320.0" y="364.0" fill="#888888" font-family="sans-serif" font-size="11" text-anchor="middle">-0.08</text>
  <rect x="340" y="340" width="40" height="40" fill="rgb(255, 50, 50)" stroke="#1a1a2e" stroke-width="1"/>
  <text x="360.0" y="364.0" fill="#ffffff" font-family="sans-serif" font-size="11" text-anchor="middle">1.00</text>
  <rect x="380" y="340" width="40" height="40" fill="rgb(54, 50, 50)" stroke="#1a1a2e" stroke-width="1"/>
  <text x="400.0" y="364.0" fill="#888888" font-family="sans-serif" font-size="11" text-anchor="middle">0.21</text>
  <rect x="420" y="340" width="40" height="40" fill="rgb(49, 50, 50)" stroke="#1a1a2e" stroke-width="1"/>
  <text x="440.0" y="364.0" fill="#888888" font-family="sans-serif" font-size="11" text-anchor="middle">0.20</text>
  <rect x="460" y="340" width="40" height="40" fill="rgb(50, 50, 65)" stroke="#1a1a2e" stroke-width="1"/>
  <text x="480.0" y="364.0" fill="#888888" font-family="sans-serif" font-size="11" text-anchor="middle">-0.26</text>
  <rect x="500" y="340" width="40" height="40" fill="rgb(60, 50, 50)" stroke="#1a1a2e" stroke-width="1"/>
  <text x="520.0" y="364.0" fill="#888888" font-family="sans-serif" font-size="11" text-anchor="middle">0.24</text>
  <rect x="540" y="340" width="40" height="40" fill="rgb(50, 50, 50)" stroke="#1a1a2e" stroke-width="1"/>
  <text x="560.0" y="364.0" fill="#888888" font-family="sans-serif" font-size="11" text-anchor="middle">0.20</text>
  <rect x="580" y="340" width="40" height="40" fill="rgb(14, 50, 50)" stroke="#1a1a2e" stroke-width="1"/>
  <text x="600.0" y="364.0" fill="#888888" font-family="sans-serif" font-size="11" text-anchor="middle">0.06</text>
  <rect x="620" y="340" width="40" height="40" fill="rgb(16, 50, 50)" stroke="#1a1a2e" stroke-width="1"/>
  <text x="640.0" y="364.0" fill="#888888" font-family="sans-serif" font-size="11" text-anchor="middle">0.07</text>
  <rect x="660" y="340" width="40" height="40" fill="rgb(100, 50, 50)" stroke="#1a1a2e" stroke-width="1"/>
  <text x="680.0" y="364.0" fill="#888888" font-family="sans-serif" font-size="11" text-anchor="middle">0.39</text>
  <text x="170" y="405.0" fill="#a0a0b0" font-family="sans-serif" font-size="14" text-anchor="end">Total_phenols</text>
  <text x="400.0" y="170" fill="#a0a0b0" font-family="sans-serif" font-size="14" text-anchor="start" transform="rotate(-45 400.0 170)">Total_phenols</text>
  <rect x="180" y="380" width="40" height="40" fill="rgb(73, 50, 50)" stroke="#1a1a2e" stroke-width="1"/>
  <text x="200.0" y="404.0" fill="#888888" font-family="sans-serif" font-size="11" text-anchor="middle">0.29</text>
  <rect x="220" y="380" width="40" height="40" fill="rgb(50, 50, 85)" stroke="#1a1a2e" stroke-width="1"/>
  <text x="240.0" y="404.0" fill="#888888" font-family="sans-serif" font-size="11" text-anchor="middle">-0.34</text>
  <rect x="260" y="380" width="40" height="40" fill="rgb(32, 50, 50)" stroke="#1a1a2e" stroke-width="1"/>
  <text x="280.0" y="404.0" fill="#888888" font-family="sans-serif" font-size="11" text-anchor="middle">0.13</text>
  <rect x="300" y="380" width="40" height="40" fill="rgb(50, 50, 81)" stroke="#1a1a2e" stroke-width="1"/>
  <text x="320.0" y="404.0" fill="#888888" font-family="sans-serif" font-size="11" text-anchor="middle">-0.32</text>
  <rect x="340" y="380" width="40" height="40" fill="rgb(54, 50, 50)" stroke="#1a1a2e" stroke-width="1"/>
  <text x="360.0" y="404.0" fill="#888888" font-family="sans-serif" font-size="11" text-anchor="middle">0.21</text>
  <rect x="380" y="380" width="40" height="40" fill="rgb(255, 50, 50)" stroke="#1a1a2e" stroke-width="1"/>
  <text x="400.0" y="404.0" fill="#ffffff" font-family="sans-serif" font-size="11" text-anchor="middle">1.00</text>
  <rect x="420" y="380" width="40" height="40" fill="rgb(220, 50, 50)" stroke="#1a1a2e" stroke-width="1"/>
  <text x="440.0" y="404.0" fill="#ffffff" font-family="sans-serif" font-size="11" text-anchor="middle">0.86</text>
  <rect x="460" y="380" width="40" height="40" fill="rgb(50, 50, 114)" stroke="#1a1a2e" stroke-width="1"/>
  <text x="480.0" y="404.0" fill="#ffffff" font-family="sans-serif" font-size="11" text-anchor="middle">-0.45</text>
  <rect x="500" y="380" width="40" height="40" fill="rgb(156, 50, 50)" stroke="#1a1a2e" stroke-width="1"/>
  <text x="520.0" y="404.0" fill="#ffffff" font-family="sans-serif" font-size="11" text-anchor="middle">0.61</text>
  <rect x="540" y="380" width="40" height="40" fill="rgb(50, 50, 14)" stroke="#1a1a2e" stroke-width="1"/>
  <text x="560.0" y="404.0" fill="#888888" font-family="sans-serif" font-size="11" text-anchor="middle">-0.06</text>
  <rect x="580" y="380" width="40" height="40" fill="rgb(110, 50, 50)" stroke="#1a1a2e" stroke-width="1"/>
  <text x="600.0" y="404.0" fill="#ffffff" font-family="sans-serif" font-size="11" text-anchor="middle">0.43</text>
  <rect x="620" y="380" width="40" height="40" fill="rgb(178, 50, 50)" stroke="#1a1a2e" stroke-width="1"/>
  <text x="640.0" y="404.0" fill="#ffffff" font-family="sans-serif" font-size="11" text-anchor="middle">0.70</text>
  <rect x="660" y="380" width="40" height="40" fill="rgb(127, 50, 50)" stroke="#1a1a2e" stroke-width="1"/>
  <text x="680.0" y="404.0" fill="#ffffff" font-family="sans-serif" font-size="11" text-anchor="middle">0.50</text>
  <text x="170" y="445.0" fill="#a0a0b0" font-family="sans-serif" font-size="14" text-anchor="end">Flavanoids</text>
  <text x="440.0" y="170" fill="#a0a0b0" font-family="sans-serif" font-size="14" text-anchor="start" transform="rotate(-45 440.0 170)">Flavanoids</text>
  <rect x="180" y="420" width="40" height="40" fill="rgb(60, 50, 50)" stroke="#1a1a2e" stroke-width="1"/>
  <text x="200.0" y="444.0" fill="#888888" font-family="sans-serif" font-size="11" text-anchor="middle">0.24</text>
  <rect x="220" y="420" width="40" height="40" fill="rgb(50, 50, 104)" stroke="#1a1a2e" stroke-width="1"/>
  <text x="240.0" y="444.0" fill="#ffffff" font-family="sans-serif" font-size="11" text-anchor="middle">-0.41</text>
  <rect x="260" y="420" width="40" height="40" fill="rgb(29, 50, 50)" stroke="#1a1a2e" stroke-width="1"/>
  <text x="280.0" y="444.0" fill="#888888" font-family="sans-serif" font-size="11" text-anchor="middle">0.12</text>
  <rect x="300" y="420" width="40" height="40" fill="rgb(50, 50, 89)" stroke="#1a1a2e" stroke-width="1"/>
  <text x="320.0" y="444.0" fill="#888888" font-family="sans-serif" font-size="11" text-anchor="middle">-0.35</text>
  <rect x="340" y="420" width="40" height="40" fill="rgb(49, 50, 50)" stroke="#1a1a2e" stroke-width="1"/>
  <text x="360.0" y="444.0" fill="#888888" font-family="sans-serif" font-size="11" text-anchor="middle">0.20</text>
  <rect x="380" y="420" width="40" height="40" fill="rgb(220, 50, 50)" stroke="#1a1a2e" stroke-width="1"/>
  <text x="400.0" y="444.0" fill="#ffffff" font-family="sans-serif" font-size="11" text-anchor="middle">0.86</text>
  <rect x="420" y="420" width="40" height="40" fill="rgb(255, 50, 50)" stroke="#1a1a2e" stroke-width="1"/>
  <text x="440.0" y="444.0" fill="#ffffff" font-family="sans-serif" font-size="11" text-anchor="middle">1.00</text>
  <rect x="460" y="420" width="40" height="40" fill="rgb(50, 50, 137)" stroke="#1a1a2e" stroke-width="1"/>
  <text x="480.0" y="444.0" fill="#ffffff" font-family="sans-serif" font-size="11" text-anchor="middle">-0.54</text>
  <rect x="500" y="420" width="40" height="40" fill="rgb(166, 50, 50)" stroke="#1a1a2e" stroke-width="1"/>
  <text x="520.0" y="444.0" fill="#ffffff" font-family="sans-serif" font-size="11" text-anchor="middle">0.65</text>
  <rect x="540" y="420" width="40" height="40" fill="rgb(50, 50, 43)" stroke="#1a1a2e" stroke-width="1"/>
  <text x="560.0" y="444.0" fill="#888888" font-family="sans-serif" font-size="11" text-anchor="middle">-0.17</text>
  <rect x="580" y="420" width="40" height="40" fill="rgb(138, 50, 50)" stroke="#1a1a2e" stroke-width="1"/>
  <text x="600.0" y="444.0" fill="#ffffff" font-family="sans-serif" font-size="11" text-anchor="middle">0.54</text>
  <rect x="620" y="420" width="40" height="40" fill="rgb(200, 50, 50)" stroke="#1a1a2e" stroke-width="1"/>
  <text x="640.0" y="444.0" fill="#ffffff" font-family="sans-serif" font-size="11" text-anchor="middle">0.79</text>
  <rect x="660" y="420" width="40" height="40" fill="rgb(126, 50, 50)" stroke="#1a1a2e" stroke-width="1"/>
  <text x="680.0" y="444.0" fill="#ffffff" font-family="sans-serif" font-size="11" text-anchor="middle">0.49</text>
  <text x="170" y="485.0" fill="#a0a0b0" font-family="sans-serif" font-size="14" text-anchor="end">Nonflavanoid_phenols</text>
  <text x="480.0" y="170" fill="#a0a0b0" font-family="sans-serif" font-size="14" text-anchor="start" transform="rotate(-45 480.0 170)">Nonflavanoid_phenols</text>
  <rect x="180" y="460" width="40" height="40" fill="rgb(50, 50, 39)" stroke="#1a1a2e" stroke-width="1"/>
  <text x="200.0" y="484.0" fill="#888888" font-family="sans-serif" font-size="11" text-anchor="middle">-0.16</text>
  <rect x="220" y="460" width="40" height="40" fill="rgb(74, 50, 50)" stroke="#1a1a2e" stroke-width="1"/>
  <text x="240.0" y="484.0" fill="#888888" font-family="sans-serif" font-size="11" text-anchor="middle">0.29</text>
  <rect x="260" y="460" width="40" height="40" fill="rgb(47, 50, 50)" stroke="#1a1a2e" stroke-width="1"/>
  <text x="280.0" y="484.0" fill="#888888" font-family="sans-serif" font-size="11" text-anchor="middle">0.19</text>
  <rect x="300" y="460" width="40" height="40" fill="rgb(92, 50, 50)" stroke="#1a1a2e" stroke-width="1"/>
  <text x="320.0" y="484.0" fill="#888888" font-family="sans-serif" font-size="11" text-anchor="middle">0.36</text>
  <rect x="340" y="460" width="40" height="40" fill="rgb(50, 50, 65)" stroke="#1a1a2e" stroke-width="1"/>
  <text x="360.0" y="484.0" fill="#888888" font-family="sans-serif" font-size="11" text-anchor="middle">-0.26</text>
  <rect x="380" y="460" width="40" height="40" fill="rgb(50, 50, 114)" stroke="#1a1a2e" stroke-width="1"/>
  <text x="400.0" y="484.0" fill="#ffffff" font-family="sans-serif" font-size="11" text-anchor="middle">-0.45</text>
  <rect x="420" y="460" width="40" height="40" fill="rgb(50, 50, 137)" stroke="#1a1a2e" stroke-width="1"/>
  <text x="440.0" y="484.0" fill="#ffffff" font-family="sans-serif" font-size="11" text-anchor="middle">-0.54</text>
  <rect x="460" y="460" width="40" height="40" fill="rgb(255, 50, 50)" stroke="#1a1a2e" stroke-width="1"/>
  <text x="480.0" y="484.0" fill="#ffffff" font-family="sans-serif" font-size="11" text-anchor="middle">1.00</text>
  <rect x="500" y="460" width="40" height="40" fill="rgb(50, 50, 93)" stroke="#1a1a2e" stroke-width="1"/>
  <text x="520.0" y="484.0" fill="#888888" font-family="sans-serif" font-size="11" text-anchor="middle">-0.37</text>
  <rect x="540" y="460" width="40" height="40" fill="rgb(35, 50, 50)" stroke="#1a1a2e" stroke-width="1"/>
  <text x="560.0" y="484.0" fill="#888888" font-family="sans-serif" font-size="11" text-anchor="middle">0.14</text>
  <rect x="580" y="460" width="40" height="40" fill="rgb(50, 50, 66)" stroke="#1a1a2e" stroke-width="1"/>
  <text x="600.0" y="484.0" fill="#888888" font-family="sans-serif" font-size="11" text-anchor="middle">-0.26</text>
  <rect x="620" y="460" width="40" height="40" fill="rgb(50, 50, 128)" stroke="#1a1a2e" stroke-width="1"/>
  <text x="640.0" y="484.0" fill="#ffffff" font-family="sans-serif" font-size="11" text-anchor="middle">-0.50</text>
  <rect x="660" y="460" width="40" height="40" fill="rgb(50, 50, 79)" stroke="#1a1a2e" stroke-width="1"/>
  <text x="680.0" y="484.0" fill="#888888" font-family="sans-serif" font-size="11" text-anchor="middle">-0.31</text>
  <text x="170" y="525.0" fill="#a0a0b0" font-family="sans-serif" font-size="14" text-anchor="end">Proanthocyanins</text>
  <text x="520.0" y="170" fill="#a0a0b0" font-family="sans-serif" font-size="14" text-anchor="start" transform="rotate(-45 520.0 170)">Proanthocyanins</text>
  <rect x="180" y="500" width="40" height="40" fill="rgb(34, 50, 50)" stroke="#1a1a2e" stroke-width="1"/>
  <text x="200.0" y="524.0" fill="#888888" font-family="sans-serif" font-size="11" text-anchor="middle">0.14</text>
  <rect x="220" y="500" width="40" height="40" fill="rgb(50, 50, 56)" stroke="#1a1a2e" stroke-width="1"/>
  <text x="240.0" y="524.0" fill="#888888" font-family="sans-serif" font-size="11" text-anchor="middle">-0.22</text>
  <rect x="260" y="500" width="40" height="40" fill="rgb(2, 50, 50)" stroke="#1a1a2e" stroke-width="1"/>
  <text x="280.0" y="524.0" fill="#888888" font-family="sans-serif" font-size="11" text-anchor="middle">0.01</text>
  <rect x="300" y="500" width="40" height="40" fill="rgb(50, 50, 50)" stroke="#1a1a2e" stroke-width="1"/>
  <text x="320.0" y="524.0" fill="#888888" font-family="sans-serif" font-size="11" text-anchor="middle">-0.20</text>
  <rect x="340" y="500" width="40" height="40" fill="rgb(60, 50, 50)" stroke="#1a1a2e" stroke-width="1"/>
  <text x="360.0" y="524.0" fill="#888888" font-family="sans-serif" font-size="11" text-anchor="middle">0.24</text>
  <rect x="380" y="500" width="40" height="40" fill="rgb(156, 50, 50)" stroke="#1a1a2e" stroke-width="1"/>
  <text x="400.0" y="524.0" fill="#ffffff" font-family="sans-serif" font-size="11" text-anchor="middle">0.61</text>
  <rect x="420" y="500" width="40" height="40" fill="rgb(166, 50, 50)" stroke="#1a1a2e" stroke-width="1"/>
  <text x="440.0" y="524.0" fill="#ffffff" font-family="sans-serif" font-size="11" text-anchor="middle">0.65</text>
  <rect x="460" y="500" width="40" height="40" fill="rgb(50, 50, 93)" stroke="#1a1a2e" stroke-width="1"/>
  <text x="480.0" y="524.0" fill="#888888" font-family="sans-serif" font-size="11" text-anchor="middle">-0.37</text>
  <rect x="500" y="500" width="40" height="40" fill="rgb(255, 50, 50)" stroke="#1a1a2e" stroke-width="1"/>
  <text x="520.0" y="524.0" fill="#ffffff" font-family="sans-serif" font-size="11" text-anchor="middle">1.00</text>
  <rect x="540" y="500" width="40" height="40" fill="rgb(50, 50, 6)" stroke="#1a1a2e" stroke-width="1"/>
  <text x="560.0" y="524.0" fill="#888888" font-family="sans-serif" font-size="11" text-anchor="middle">-0.03</text>
  <rect x="580" y="500" width="40" height="40" fill="rgb(75, 50, 50)" stroke="#1a1a2e" stroke-width="1"/>
  <text x="600.0" y="524.0" fill="#888888" font-family="sans-serif" font-size="11" text-anchor="middle">0.30</text>
  <rect x="620" y="500" width="40" height="40" fill="rgb(132, 50, 50)" stroke="#1a1a2e" stroke-width="1"/>
  <text x="640.0" y="524.0" fill="#ffffff" font-family="sans-serif" font-size="11" text-anchor="middle">0.52</text>
  <rect x="660" y="500" width="40" height="40" fill="rgb(84, 50, 50)" stroke="#1a1a2e" stroke-width="1"/>
  <text x="680.0" y="524.0" fill="#888888" font-family="sans-serif" font-size="11" text-anchor="middle">0.33</text>
  <text x="170" y="565.0" fill="#a0a0b0" font-family="sans-serif" font-size="14" text-anchor="end">Color_intensity</text>
  <text x="560.0" y="170" fill="#a0a0b0" font-family="sans-serif" font-size="14" text-anchor="start" transform="rotate(-45 560.0 170)">Color_intensity</text>
  <rect x="180" y="540" width="40" height="40" fill="rgb(139, 50, 50)" stroke="#1a1a2e" stroke-width="1"/>
  <text x="200.0" y="564.0" fill="#ffffff" font-family="sans-serif" font-size="11" text-anchor="middle">0.55</text>
  <rect x="220" y="540" width="40" height="40" fill="rgb(63, 50, 50)" stroke="#1a1a2e" stroke-width="1"/>
  <text x="240.0" y="564.0" fill="#888888" font-family="sans-serif" font-size="11" text-anchor="middle">0.25</text>
  <rect x="260" y="540" width="40" height="40" fill="rgb(66, 50, 50)" stroke="#1a1a2e" stroke-width="1"/>
  <text x="280.0" y="564.0" fill="#888888" font-family="sans-serif" font-size="11" text-anchor="middle">0.26</text>
  <rect x="300" y="540" width="40" height="40" fill="rgb(4, 50, 50)" stroke="#1a1a2e" stroke-width="1"/>
  <text x="320.0" y="564.0" fill="#888888" font-family="sans-serif" font-size="11" text-anchor="middle">0.02</text>
  <rect x="340" y="540" width="40" height="40" fill="rgb(50, 50, 50)" stroke="#1a1a2e" stroke-width="1"/>
  <text x="360.0" y="564.0" fill="#888888" font-family="sans-serif" font-size="11" text-anchor="middle">0.20</text>
  <rect x="380" y="540" width="40" height="40" fill="rgb(50, 50, 14)" stroke="#1a1a2e" stroke-width="1"/>
  <text x="400.0" y="564.0" fill="#888888" font-family="sans-serif" font-size="11" text-anchor="middle">-0.06</text>
  <rect x="420" y="540" width="40" height="40" fill="rgb(50, 50, 43)" stroke="#1a1a2e" stroke-width="1"/>
  <text x="440.0" y="564.0" fill="#888888" font-family="sans-serif" font-size="11" text-anchor="middle">-0.17</text>
  <rect x="460" y="540" width="40" height="40" fill="rgb(35, 50, 50)" stroke="#1a1a2e" stroke-width="1"/>
  <text x="480.0" y="564.0" fill="#888888" font-family="sans-serif" font-size="11" text-anchor="middle">0.14</text>
  <rect x="500" y="540" width="40" height="40" fill="rgb(50, 50, 6)" stroke="#1a1a2e" stroke-width="1"/>
  <text x="520.0" y="564.0" fill="#888888" font-family="sans-serif" font-size="11" text-anchor="middle">-0.03</text>
  <rect x="540" y="540" width="40" height="40" fill="rgb(255, 50, 50)" stroke="#1a1a2e" stroke-width="1"/>
  <text x="560.0" y="564.0" fill="#ffffff" font-family="sans-serif" font-size="11" text-anchor="middle">1.00</text>
  <rect x="580" y="540" width="40" height="40" fill="rgb(50, 50, 133)" stroke="#1a1a2e" stroke-width="1"/>
  <text x="600.0" y="564.0" fill="#ffffff" font-family="sans-serif" font-size="11" text-anchor="middle">-0.52</text>
  <rect x="620" y="540" width="40" height="40" fill="rgb(50, 50, 109)" stroke="#1a1a2e" stroke-width="1"/>
  <text x="640.0" y="564.0" fill="#ffffff" font-family="sans-serif" font-size="11" text-anchor="middle">-0.43</text>
  <rect x="660" y="540" width="40" height="40" fill="rgb(80, 50, 50)" stroke="#1a1a2e" stroke-width="1"/>
  <text x="680.0" y="564.0" fill="#888888" font-family="sans-serif" font-size="11" text-anchor="middle">0.32</text>
  <text x="170" y="605.0" fill="#a0a0b0" font-family="sans-serif" font-size="14" text-anchor="end">Hue</text>
  <text x="600.0" y="170" fill="#a0a0b0" font-family="sans-serif" font-size="14" text-anchor="start" transform="rotate(-45 600.0 170)">Hue</text>
  <rect x="180" y="580" width="40" height="40" fill="rgb(50, 50, 18)" stroke="#1a1a2e" stroke-width="1"/>
  <text x="200.0" y="604.0" fill="#888888" font-family="sans-serif" font-size="11" text-anchor="middle">-0.07</text>
  <rect x="220" y="580" width="40" height="40" fill="rgb(50, 50, 143)" stroke="#1a1a2e" stroke-width="1"/>
  <text x="240.0" y="604.0" fill="#ffffff" font-family="sans-serif" font-size="11" text-anchor="middle">-0.56</text>
  <rect x="260" y="580" width="40" height="40" fill="rgb(50, 50, 19)" stroke="#1a1a2e" stroke-width="1"/>
  <text x="280.0" y="604.0" fill="#888888" font-family="sans-serif" font-size="11" text-anchor="middle">-0.07</text>
  <rect x="300" y="580" width="40" height="40" fill="rgb(50, 50, 69)" stroke="#1a1a2e" stroke-width="1"/>
  <text x="320.0" y="604.0" fill="#888888" font-family="sans-serif" font-size="11" text-anchor="middle">-0.27</text>
  <rect x="340" y="580" width="40" height="40" fill="rgb(14, 50, 50)" stroke="#1a1a2e" stroke-width="1"/>
  <text x="360.0" y="604.0" fill="#888888" font-family="sans-serif" font-size="11" text-anchor="middle">0.06</text>
  <rect x="380" y="580" width="40" height="40" fill="rgb(110, 50, 50)" stroke="#1a1a2e" stroke-width="1"/>
  <text x="400.0" y="604.0" fill="#ffffff" font-family="sans-serif" font-size="11" text-anchor="middle">0.43</text>
  <rect x="420" y="580" width="40" height="40" fill="rgb(138, 50, 50)" stroke="#1a1a2e" stroke-width="1"/>
  <text x="440.0" y="604.0" fill="#ffffff" font-family="sans-serif" font-size="11" text-anchor="middle">0.54</text>
  <rect x="460" y="580" width="40" height="40" fill="rgb(50, 50, 66)" stroke="#1a1a2e" stroke-width="1"/>
  <text x="480.0" y="604.0" fill="#888888" font-family="sans-serif" font-size="11" text-anchor="middle">-0.26</text>
  <rect x="500" y="580" width="40" height="40" fill="rgb(75, 50, 50)" stroke="#1a1a2e" stroke-width="1"/>
  <text x="520.0" y="604.0" fill="#888888" font-family="sans-serif" font-size="11" text-anchor="middle">0.30</text>
  <rect x="540" y="580" width="40" height="40" fill="rgb(50, 50, 133)" stroke="#1a1a2e" stroke-width="1"/>
  <text x="560.0" y="604.0" fill="#ffffff" font-family="sans-serif" font-size="11" text-anchor="middle">-0.52</text>
  <rect x="580" y="580" width="40" height="40" fill="rgb(255, 50, 50)" stroke="#1a1a2e" stroke-width="1"/>
  <text x="600.0" y="604.0" fill="#ffffff" font-family="sans-serif" font-size="11" text-anchor="middle">1.00</text>
  <rect x="620" y="580" width="40" height="40" fill="rgb(144, 50, 50)" stroke="#1a1a2e" stroke-width="1"/>
  <text x="640.0" y="604.0" fill="#ffffff" font-family="sans-serif" font-size="11" text-anchor="middle">0.57</text>
  <rect x="660" y="580" width="40" height="40" fill="rgb(60, 50, 50)" stroke="#1a1a2e" stroke-width="1"/>
  <text x="680.0" y="604.0" fill="#888888" font-family="sans-serif" font-size="11" text-anchor="middle">0.24</text>
  <text x="170" y="645.0" fill="#a0a0b0" font-family="sans-serif" font-size="14" text-anchor="end">OD280_OD315</text>
  <text x="640.0" y="170" fill="#a0a0b0" font-family="sans-serif" font-size="14" text-anchor="start" transform="rotate(-45 640.0 170)">OD280_OD315</text>
  <rect x="180" y="620" width="40" height="40" fill="rgb(18, 50, 50)" stroke="#1a1a2e" stroke-width="1"/>
  <text x="200.0" y="644.0" fill="#888888" font-family="sans-serif" font-size="11" text-anchor="middle">0.07</text>
  <rect x="220" y="620" width="40" height="40" fill="rgb(50, 50, 94)" stroke="#1a1a2e" stroke-width="1"/>
  <text x="240.0" y="644.0" fill="#888888" font-family="sans-serif" font-size="11" text-anchor="middle">-0.37</text>
  <rect x="260" y="620" width="40" height="40" fill="rgb(0, 50, 50)" stroke="#1a1a2e" stroke-width="1"/>
  <text x="280.0" y="644.0" fill="#888888" font-family="sans-serif" font-size="11" text-anchor="middle">0.00</text>
  <rect x="300" y="620" width="40" height="40" fill="rgb(50, 50, 70)" stroke="#1a1a2e" stroke-width="1"/>
  <text x="320.0" y="644.0" fill="#888888" font-family="sans-serif" font-size="11" text-anchor="middle">-0.28</text>
  <rect x="340" y="620" width="40" height="40" fill="rgb(16, 50, 50)" stroke="#1a1a2e" stroke-width="1"/>
  <text x="360.0" y="644.0" fill="#888888" font-family="sans-serif" font-size="11" text-anchor="middle">0.07</text>
  <rect x="380" y="620" width="40" height="40" fill="rgb(178, 50, 50)" stroke="#1a1a2e" stroke-width="1"/>
  <text x="400.0" y="644.0" fill="#ffffff" font-family="sans-serif" font-size="11" text-anchor="middle">0.70</text>
  <rect x="420" y="620" width="40" height="40" fill="rgb(200, 50, 50)" stroke="#1a1a2e" stroke-width="1"/>
  <text x="440.0" y="644.0" fill="#ffffff" font-family="sans-serif" font-size="11" text-anchor="middle">0.79</text>
  <rect x="460" y="620" width="40" height="40" fill="rgb(50, 50, 128)" stroke="#1a1a2e" stroke-width="1"/>
  <text x="480.0" y="644.0" fill="#ffffff" font-family="sans-serif" font-size="11" text-anchor="middle">-0.50</text>
  <rect x="500" y="620" width="40" height="40" fill="rgb(132, 50, 50)" stroke="#1a1a2e" stroke-width="1"/>
  <text x="520.0" y="644.0" fill="#ffffff" font-family="sans-serif" font-size="11" text-anchor="middle">0.52</text>
  <rect x="540" y="620" width="40" height="40" fill="rgb(50, 50, 109)" stroke="#1a1a2e" stroke-width="1"/>
  <text x="560.0" y="644.0" fill="#ffffff" font-family="sans-serif" font-size="11" text-anchor="middle">-0.43</text>
  <rect x="580" y="620" width="40" height="40" fill="rgb(144, 50, 50)" stroke="#1a1a2e" stroke-width="1"/>
  <text x="600.0" y="644.0" fill="#ffffff" font-family="sans-serif" font-size="11" text-anchor="middle">0.57</text>
  <rect x="620" y="620" width="40" height="40" fill="rgb(255, 50, 50)" stroke="#1a1a2e" stroke-width="1"/>
  <text x="640.0" y="644.0" fill="#ffffff" font-family="sans-serif" font-size="11" text-anchor="middle">1.00</text>
  <rect x="660" y="620" width="40" height="40" fill="rgb(79, 50, 50)" stroke="#1a1a2e" stroke-width="1"/>
  <text x="680.0" y="644.0" fill="#888888" font-family="sans-serif" font-size="11" text-anchor="middle">0.31</text>
  <text x="170" y="685.0" fill="#a0a0b0" font-family="sans-serif" font-size="14" text-anchor="end">Proline</text>
  <text x="680.0" y="170" fill="#a0a0b0" font-family="sans-serif" font-size="14" text-anchor="start" transform="rotate(-45 680.0 170)">Proline</text>
  <rect x="180" y="660" width="40" height="40" fill="rgb(164, 50, 50)" stroke="#1a1a2e" stroke-width="1"/>
  <text x="200.0" y="684.0" fill="#ffffff" font-family="sans-serif" font-size="11" text-anchor="middle">0.64</text>
  <rect x="220" y="660" width="40" height="40" fill="rgb(50, 50, 48)" stroke="#1a1a2e" stroke-width="1"/>
  <text x="240.0" y="684.0" fill="#888888" font-family="sans-serif" font-size="11" text-anchor="middle">-0.19</text>
  <rect x="260" y="660" width="40" height="40" fill="rgb(57, 50, 50)" stroke="#1a1a2e" stroke-width="1"/>
  <text x="280.0" y="684.0" fill="#888888" font-family="sans-serif" font-size="11" text-anchor="middle">0.22</text>
  <rect x="300" y="660" width="40" height="40" fill="rgb(50, 50, 112)" stroke="#1a1a2e" stroke-width="1"/>
  <text x="320.0" y="684.0" fill="#ffffff" font-family="sans-serif" font-size="11" text-anchor="middle">-0.44</text>
  <rect x="340" y="660" width="40" height="40" fill="rgb(100, 50, 50)" stroke="#1a1a2e" stroke-width="1"/>
  <text x="360.0" y="684.0" fill="#888888" font-family="sans-serif" font-size="11" text-anchor="middle">0.39</text>
  <rect x="380" y="660" width="40" height="40" fill="rgb(127, 50, 50)" stroke="#1a1a2e" stroke-width="1"/>
  <text x="400.0" y="684.0" fill="#ffffff" font-family="sans-serif" font-size="11" text-anchor="middle">0.50</text>
  <rect x="420" y="660" width="40" height="40" fill="rgb(126, 50, 50)" stroke="#1a1a2e" stroke-width="1"/>
  <text x="440.0" y="684.0" fill="#ffffff" font-family="sans-serif" font-size="11" text-anchor="middle">0.49</text>
  <rect x="460" y="660" width="40" height="40" fill="rgb(50, 50, 79)" stroke="#1a1a2e" stroke-width="1"/>
  <text x="480.0" y="684.0" fill="#888888" font-family="sans-serif" font-size="11" text-anchor="middle">-0.31</text>
  <rect x="500" y="660" width="40" height="40" fill="rgb(84, 50, 50)" stroke="#1a1a2e" stroke-width="1"/>
  <text x="520.0" y="684.0" fill="#888888" font-family="sans-serif" font-size="11" text-anchor="middle">0.33</text>
  <rect x="540" y="660" width="40" height="40" fill="rgb(80, 50, 50)" stroke="#1a1a2e" stroke-width="1"/>
  <text x="560.0" y="684.0" fill="#888888" font-family="sans-serif" font-size="11" text-anchor="middle">0.32</text>
  <rect x="580" y="660" width="40" height="40" fill="rgb(60, 50, 50)" stroke="#1a1a2e" stroke-width="1"/>
  <text x="600.0" y="684.0" fill="#888888" font-family="sans-serif" font-size="11" text-anchor="middle">0.24</text>
  <rect x="620" y="660" width="40" height="40" fill="rgb(79, 50, 50)" stroke="#1a1a2e" stroke-width="1"/>
  <text x="640.0" y="684.0" fill="#888888" font-family="sans-serif" font-size="11" text-anchor="middle">0.31</text>
  <rect x="660" y="660" width="40" height="40" fill="rgb(255, 50, 50)" stroke="#1a1a2e" stroke-width="1"/>
  <text x="680.0" y="684.0" fill="#ffffff" font-family="sans-serif" font-size="11" text-anchor="middle">1.00</text>
</svg>