<svg xmlns="http://www.w3.org/2000/svg" width="560" height="380" style="background:#1a1a2e;font-family:monospace;">
<text x="280" y="30" text-anchor="middle" fill="#e0e0e0" font-size="14" font-weight="bold">Explained Variance Ratio</text>
<line x1="70" y1="50" x2="70" y2="320" stroke="#555" stroke-width="1"/>
<line x1="70" y1="320" x2="520" y2="320" stroke="#555" stroke-width="1"/>
<line x1="66" y1="320.0" x2="520" y2="320.0" stroke="#333" stroke-width="0.5" stroke-dasharray="3,3"/>
<text x="62" y="324.0" text-anchor="end" fill="#999" font-size="10">0%</text>
<line x1="66" y1="252.5" x2="520" y2="252.5" stroke="#333" stroke-width="0.5" stroke-dasharray="3,3"/>
<text x="62" y="256.5" text-anchor="end" fill="#999" font-size="10">25%</text>
<line x1="66" y1="185.0" x2="520" y2="185.0" stroke="#333" stroke-width="0.5" stroke-dasharray="3,3"/>
<text x="62" y="189.0" text-anchor="end" fill="#999" font-size="10">50%</text>
<line x1="66" y1="117.5" x2="520" y2="117.5" stroke="#333" stroke-width="0.5" stroke-dasharray="3,3"/>
<text x="62" y="121.5" text-anchor="end" fill="#999" font-size="10">75%</text>
<line x1="66" y1="50.0" x2="520" y2="50.0" stroke="#333" stroke-width="0.5" stroke-dasharray="3,3"/>
<text x="62" y="54.0" text-anchor="end" fill="#999" font-size="10">100%</text>
<rect x="92.5" y="132.0" width="105.0" height="188.0" fill="#e63946" rx="3" opacity="0.85"/>
<text x="145.0" y="126.0" text-anchor="middle" fill="#e0e0e0" font-size="10">69.6%</text>
<text x="145.0" y="336.0" text-anchor="middle" fill="#aaa" font-size="11">LD1</text>
<rect x="242.5" y="238.0" width="105.0" height="82.0" fill="#e63946" rx="3" opacity="0.85"/>
<text x="295.0" y="232.0" text-anchor="middle" fill="#e0e0e0" font-size="10">30.4%</text>
<text x="295.0" y="336.0" text-anchor="middle" fill="#aaa" font-size="11">LD2</text>
<polyline points="145.0,132.0 295.0,50.0" fill="none" stroke="#2a9d8f" stroke-width="2" stroke-dasharray="5,3"/>
<circle cx="145.0" cy="132.0" r="4" fill="#2a9d8f"/>
<circle cx="295.0" cy="50.0" r="4" fill="#2a9d8f"/>
</svg>