<svg xmlns="http://www.w3.org/2000/svg" viewBox="0 0 720 640" width="720" height="640">
  <rect width="720" height="640" fill="#1a1a2e"/>
  <text x="360.0" y="40" fill="#ffffff" font-family="sans-serif" font-size="24" font-weight="bold" text-anchor="middle">Feature Distributions by Class</text>
  <rect x="260.0" y="60" width="15" height="15" fill="#ff6b7a" rx="2"/>
  <text x="280.0" y="73" fill="#ffffff" font-family="sans-serif" font-size="14">Class 1</text>
  <rect x="340.0" y="60" width="15" height="15" fill="#52d9cb" rx="2"/>
  <text x="360.0" y="73" fill="#ffffff" font-family="sans-serif" font-size="14">Class 2</text>
  <rect x="420.0" y="60" width="15" height="15" fill="#f4d792" rx="2"/>
  <text x="440.0" y="73" fill="#ffffff" font-family="sans-serif" font-size="14">Class 3</text>
  <text x="190.0" y="110" fill="#ffffff" font-family="sans-serif" font-size="16" text-anchor="middle">Alcohol</text>
  <line x1="40" y1="320" x2="340" y2="320" stroke="#ffffff" stroke-opacity="0.5" stroke-width="2"/>
  <line x1="40" y1="120" x2="40" y2="320" stroke="#ffffff" stroke-opacity="0.5" stroke-width="2"/>
  <text x="40" y="340" fill="#a0a0b0" font-family="sans-serif" font-size="12" text-anchor="middle">11.0</text>
  <text x="340" y="340" fill="#a0a0b0" font-family="sans-serif" font-size="12" text-anchor="middle">14.8</text>
  <path d="M 50.0 320.0 L 70.0 320.0 L 90.0 320.0 L 110.0 320.0 L 130.0 320.0 L 150.0 320.0 L 170.0 320.0 L 190.0 232.72727272727275 L 210.0 203.63636363636363 L 230.0 218.1818181818182 L 250.0 160.0 L 270.0 160.0 L 290.0 174.54545454545456 L 310.0 261.8181818181818 L 330.0 290.9090909090909" fill="none" stroke="#ff6b7a" stroke-width="3" stroke-opacity="0.8"/>
  <path d="M 50.0 310.0 L 70.0 290.0 L 90.0 240.0 L 110.0 210.0 L 130.0 170.0 L 150.0 160.0 L 170.0 240.0 L 190.0 280.0 L 210.0 310.0 L 230.0 300.0 L 250.0 310.0 L 270.0 310.0 L 290.0 320.0 L 310.0 320.0 L 330.0 320.0" fill="none" stroke="#52d9cb" stroke-width="3" stroke-opacity="0.8"/>
  <path d="M 50.0 320.0 L 70.0 320.0 L 90.0 320.0 L 110.0 320.0 L 130.0 266.6666666666667 L 150.0 248.88888888888889 L 170.0 231.11111111111111 L 190.0 160.0 L 210.0 195.55555555555554 L 230.0 160.0 L 250.0 213.33333333333334 L 270.0 284.44444444444446 L 290.0 284.44444444444446 L 310.0 302.22222222222223 L 330.0 320.0" fill="none" stroke="#f4d792" stroke-width="3" stroke-opacity="0.8"/>
  <text x="550.0" y="110" fill="#ffffff" font-family="sans-serif" font-size="16" text-anchor="middle">Malic_acid</text>
  <line x1="400" y1="320" x2="700" y2="320" stroke="#ffffff" stroke-opacity="0.5" stroke-width="2"/>
  <line x1="400" y1="120" x2="400" y2="320" stroke="#ffffff" stroke-opacity="0.5" stroke-width="2"/>
  <text x="400" y="340" fill="#a0a0b0" font-family="sans-serif" font-size="12" text-anchor="middle">0.7</text>
  <text x="700" y="340" fill="#a0a0b0" font-family="sans-serif" font-size="12" text-anchor="middle">5.8</text>
  <path d="M 410.0 320.0 L 430.0 314.0740740740741 L 450.0 160.0 L 470.0 201.4814814814815 L 490.0 302.22222222222223 L 510.0 314.0740740740741 L 530.0 314.0740740740741 L 550.0 320.0 L 570.0 314.0740740740741 L 590.0 290.3703703703704 L 610.0 320.0 L 630.0 320.0 L 650.0 320.0 L 670.0 320.0 L 690.0 320.0" fill="none" stroke="#ff6b7a" stroke-width="3" stroke-opacity="0.8"/>
  <path d="M 410.0 235.78947368421052 L 430.0 193.68421052631578 L 450.0 160.0 L 470.0 261.0526315789474 L 490.0 286.3157894736842 L 510.0 286.3157894736842 L 530.0 303.1578947368421 L 550.0 294.7368421052632 L 570.0 311.57894736842104 L 590.0 303.1578947368421 L 610.0 294.7368421052632 L 630.0 320.0 L 650.0 320.0 L 670.0 320.0 L 690.0 311.57894736842104" fill="none" stroke="#52d9cb" stroke-width="3" stroke-opacity="0.8"/>
  <path d="M 410.0 320.0 L 430.0 251.42857142857144 L 450.0 274.2857142857143 L 470.0 297.14285714285717 L 490.0 274.2857142857143 L 510.0 160.0 L 530.0 205.71428571428572 L 550.0 160.0 L 570.0 205.71428571428572 L 590.0 205.71428571428572 L 610.0 251.42857142857144 L 630.0 251.42857142857144 L 650.0 274.2857142857143 L 670.0 297.14285714285717 L 690.0 274.2857142857143" fill="none" stroke="#f4d792" stroke-width="3" stroke-opacity="0.8"/>
  <text x="190.0" y="430" fill="#ffffff" font-family="sans-serif" font-size="16" text-anchor="middle">Ash</text>
  <line x1="40" y1="640" x2="340" y2="640" stroke="#ffffff" stroke-opacity="0.5" stroke-width="2"/>
  <line x1="40" y1="440" x2="40" y2="640" stroke="#ffffff" stroke-opacity="0.5" stroke-width="2"/>
  <text x="40" y="660" fill="#a0a0b0" font-family="sans-serif" font-size="12" text-anchor="middle">1.4</text>
  <text x="340" y="660" fill="#a0a0b0" font-family="sans-serif" font-size="12" text-anchor="middle">3.2</text>
  <path d="M 50.0 640.0 L 70.0 640.0 L 90.0 640.0 L 110.0 640.0 L 130.0 640.0 L 150.0 608.0 L 170.0 576.0 L 190.0 533.3333333333334 L 210.0 480.0 L 230.0 554.6666666666666 L 250.0 501.3333333333333 L 270.0 618.6666666666666 L 290.0 629.3333333333334 L 310.0 640.0 L 330.0 629.3333333333334" fill="none" stroke="#ff6b7a" stroke-width="3" stroke-opacity="0.8"/>
  <path d="M 50.0 628.5714285714286 L 70.0 640.0 L 90.0 605.7142857142857 L 110.0 617.1428571428571 L 130.0 525.7142857142857 L 150.0 582.8571428571429 L 170.0 491.42857142857144 L 190.0 480.0 L 210.0 548.5714285714286 L 230.0 560.0 L 250.0 594.2857142857143 L 270.0 617.1428571428571 L 290.0 628.5714285714286 L 310.0 640.0 L 330.0 628.5714285714286" fill="none" stroke="#52d9cb" stroke-width="3" stroke-opacity="0.8"/>
  <path d="M 50.0 640.0 L 70.0 640.0 L 90.0 640.0 L 110.0 640.0 L 130.0 640.0 L 150.0 627.6923076923077 L 170.0 578.4615384615385 L 190.0 480.0 L 210.0 480.0 L 230.0 590.7692307692307 L 250.0 529.2307692307693 L 270.0 615.3846153846154 L 290.0 627.6923076923077 L 310.0 640.0 L 330.0 640.0" fill="none" stroke="#f4d792" stroke-width="3" stroke-opacity="0.8"/>
  <text x="550.0" y="430" fill="#ffffff" font-family="sans-serif" font-size="16" text-anchor="middle">Alcalinity_of_ash</text>
  <line x1="400" y1="640" x2="700" y2="640" stroke="#ffffff" stroke-opacity="0.5" stroke-width="2"/>
  <line x1="400" y1="440" x2="400" y2="640" stroke="#ffffff" stroke-opacity="0.5" stroke-width="2"/>
  <text x="400" y="660" fill="#a0a0b0" font-family="sans-serif" font-size="12" text-anchor="middle">10.6</text>
  <text x="700" y="660" fill="#a0a0b0" font-family="sans-serif" font-size="12" text-anchor="middle">30.0</text>
  <path d="M 410.0 622.2222222222222 L 430.0 622.2222222222222 L 450.0 613.3333333333334 L 470.0 577.7777777777778 L 490.0 480.0 L 510.0 551.1111111111111 L 530.0 560.0 L 550.0 595.5555555555555 L 570.0 631.1111111111111 L 590.0 631.1111111111111 L 610.0 640.0 L 630.0 631.1111111111111 L 650.0 640.0 L 670.0 640.0 L 690.0 640.0" fill="none" stroke="#ff6b7a" stroke-width="3" stroke-opacity="0.8"/>
  <path d="M 410.0 628.5714285714286 L 430.0 640.0 L 450.0 640.0 L 470.0 617.1428571428571 L 490.0 548.5714285714286 L 510.0 537.1428571428571 L 530.0 480.0 L 550.0 560.0 L 570.0 480.0 L 590.0 571.4285714285714 L 610.0 594.2857142857143 L 630.0 617.1428571428571 L 650.0 628.5714285714286 L 670.0 617.1428571428571 L 690.0 628.5714285714286" fill="none" stroke="#52d9cb" stroke-width="3" stroke-opacity="0.8"/>
  <path d="M 410.0 640.0 L 430.0 640.0 L 450.0 640.0 L 470.0 640.0 L 490.0 640.0 L 510.0 613.3333333333334 L 530.0 520.0 L 550.0 506.66666666666663 L 570.0 480.0 L 590.0 573.3333333333334 L 610.0 573.3333333333334 L 630.0 586.6666666666666 L 650.0 626.6666666666666 L 670.0 640.0 L 690.0 640.0" fill="none" stroke="#f4d792" stroke-width="3" stroke-opacity="0.8"/>
</svg>