<svg xmlns="http://www.w3.org/2000/svg" width="700" height="520" style="background:#1a1a2e;font-family:monospace;">
<text x="350" y="28" text-anchor="middle" fill="#e0e0e0" font-size="16" font-weight="bold">LDA — Wine Dataset (Train)</text>
<line x1="70" y1="450" x2="630" y2="450" stroke="#555" stroke-width="1"/>
<line x1="70" y1="70" x2="70" y2="450" stroke="#555" stroke-width="1"/>
<text x="350" y="512" text-anchor="middle" fill="#aaa" font-size="12">LD1</text>
<text x="14" y="260" text-anchor="middle" fill="#aaa" font-size="12" transform="rotate(-90,14,260)">LD2</text>
<line x1="70" y1="70" x2="630" y2="70" stroke="#333" stroke-width="0.5" stroke-dasharray="4,4"/>
<line x1="70" y1="70" x2="70" y2="450" stroke="#333" stroke-width="0.5" stroke-dasharray="4,4"/>
<line x1="70" y1="165" x2="630" y2="165" stroke="#333" stroke-width="0.5" stroke-dasharray="4,4"/>
<line x1="210" y1="70" x2="210" y2="450" stroke="#333" stroke-width="0.5" stroke-dasharray="4,4"/>
<line x1="70" y1="260" x2="630" y2="260" stroke="#333" stroke-width="0.5" stroke-dasharray="4,4"/>
<line x1="350" y1="70" x2="350" y2="450" stroke="#333" stroke-width="0.5" stroke-dasharray="4,4"/>
<line x1="70" y1="355" x2="630" y2="355" stroke="#333" stroke-width="0.5" stroke-dasharray="4,4"/>
<line x1="490" y1="70" x2="490" y2="450" stroke="#333" stroke-width="0.5" stroke-dasharray="4,4"/>
<line x1="70" y1="450" x2="630" y2="450" stroke="#333" stroke-width="0.5" stroke-dasharray="4,4"/>
<line x1="630" y1="70" x2="630" y2="450" stroke="#333" stroke-width="0.5" stroke-dasharray="4,4"/>
<circle cx="534.4" cy="177.3" r="5" fill="#e63946" stroke="#ff6b7a" stroke-width="0.8" opacity="0.85"/>
<circle cx="415.1" cy="227.8" r="5" fill="#e63946" stroke="#ff6b7a" stroke-width="0.8" opacity="0.85"/>
<circle cx="500.1" cy="225.3" r="5" fill="#e63946" stroke="#ff6b7a" stroke-width="0.8" opacity="0.85"/>
<circle cx="449.3" cy="350.5" r="5" fill="#2a9d8f" stroke="#52d9cb" stroke-width="0.8" opacity="0.85"/>
<circle cx="521.3" cy="219.9" r="5" fill="#e63946" stroke="#ff6b7a" stroke-width="0.8" opacity="0.85"/>
<circle cx="192.4" cy="277.2" r="5" fill="#2a9d8f" stroke="#52d9cb" stroke-width="0.8" opacity="0.85"/>
<circle cx="379.9" cy="373.9" r="5" fill="#2a9d8f" stroke="#52d9cb" stroke-width="0.8" opacity="0.85"/>
<circle cx="509.0" cy="228.2" r="5" fill="#e63946" stroke="#ff6b7a" stroke-width="0.8" opacity="0.85"/>
<circle cx="296.4" cy="306.7" r="5" fill="#2a9d8f" stroke="#52d9cb" stroke-width="0.8" opacity="0.85"/>
<circle cx="370.7" cy="345.1" r="5" fill="#2a9d8f" stroke="#52d9cb" stroke-width="0.8" opacity="0.85"/>
<circle cx="579.1" cy="170.9" r="5" fill="#e63946" stroke="#ff6b7a" stroke-width="0.8" opacity="0.85"/>
<circle cx="498.6" cy="175.4" r="5" fill="#e63946" stroke="#ff6b7a" stroke-width="0.8" opacity="0.85"/>
<circle cx="485.0" cy="180.9" r="5" fill="#e63946" stroke="#ff6b7a" stroke-width="0.8" opacity="0.85"/>
<circle cx="422.6" cy="337.7" r="5" fill="#2a9d8f" stroke="#52d9cb" stroke-width="0.8" opacity="0.85"/>
<circle cx="535.7" cy="150.1" r="5" fill="#e63946" stroke="#ff6b7a" stroke-width="0.8" opacity="0.85"/>
<circle cx="366.6" cy="343.2" r="5" fill="#2a9d8f" stroke="#52d9cb" stroke-width="0.8" opacity="0.85"/>
<circle cx="97.7" cy="190.0" r="5" fill="#e9c46a" stroke="#f4d792" stroke-width="0.8" opacity="0.85"/>
<circle cx="357.6" cy="356.3" r="5" fill="#2a9d8f" stroke="#52d9cb" stroke-width="0.8" opacity="0.85"/>
<circle cx="558.2" cy="125.7" r="5" fill="#e63946" stroke="#ff6b7a" stroke-width="0.8" opacity="0.85"/>
<circle cx="146.6" cy="131.6" r="5" fill="#e9c46a" stroke="#f4d792" stroke-width="0.8" opacity="0.85"/>
<circle cx="272.1" cy="266.8" r="5" fill="#2a9d8f" stroke="#52d9cb" stroke-width="0.8" opacity="0.85"/>
<circle cx="425.1" cy="227.2" r="5" fill="#e63946" stroke="#ff6b7a" stroke-width="0.8" opacity="0.85"/>
<circle cx="368.3" cy="450.0" r="5" fill="#2a9d8f" stroke="#52d9cb" stroke-width="0.8" opacity="0.85"/>
<circle cx="322.0" cy="355.6" r="5" fill="#2a9d8f" stroke="#52d9cb" stroke-width="0.8" opacity="0.85"/>
<circle cx="487.7" cy="190.7" r="5" fill="#e63946" stroke="#ff6b7a" stroke-width="0.8" opacity="0.85"/>
<circle cx="296.6" cy="380.5" r="5" fill="#2a9d8f" stroke="#52d9cb" stroke-width="0.8" opacity="0.85"/>
<circle cx="521.7" cy="177.9" r="5" fill="#e63946" stroke="#ff6b7a" stroke-width="0.8" opacity="0.85"/>
<circle cx="517.1" cy="146.2" r="5" fill="#e63946" stroke="#ff6b7a" stroke-width="0.8" opacity="0.85"/>
<circle cx="539.6" cy="242.2" r="5" fill="#e63946" stroke="#ff6b7a" stroke-width="0.8" opacity="0.85"/>
<circle cx="143.9" cy="96.9" r="5" fill="#e9c46a" stroke="#f4d792" stroke-width="0.8" opacity="0.85"/>
<circle cx="229.8" cy="327.1" r="5" fill="#2a9d8f" stroke="#52d9cb" stroke-width="0.8" opacity="0.85"/>
<circle cx="454.2" cy="207.7" r="5" fill="#e63946" stroke="#ff6b7a" stroke-width="0.8" opacity="0.85"/>
<circle cx="318.9" cy="386.0" r="5" fill="#2a9d8f" stroke="#52d9cb" stroke-width="0.8" opacity="0.85"/>
<circle cx="384.7" cy="304.8" r="5" fill="#2a9d8f" stroke="#52d9cb" stroke-width="0.8" opacity="0.85"/>
<circle cx="326.8" cy="319.6" r="5" fill="#2a9d8f" stroke="#52d9cb" stroke-width="0.8" opacity="0.85"/>
<circle cx="255.7" cy="318.1" r="5" fill="#2a9d8f" stroke="#52d9cb" stroke-width="0.8" opacity="0.85"/>
<circle cx="408.7" cy="324.6" r="5" fill="#2a9d8f" stroke="#52d9cb" stroke-width="0.8" opacity="0.85"/>
<circle cx="511.3" cy="172.7" r="5" fill="#e63946" stroke="#ff6b7a" stroke-width="0.8" opacity="0.85"/>
<circle cx="159.9" cy="115.0" r="5" fill="#e9c46a" stroke="#f4d792" stroke-width="0.8" opacity="0.85"/>
<circle cx="395.9" cy="301.5" r="5" fill="#2a9d8f" stroke="#52d9cb" stroke-width="0.8" opacity="0.85"/>
<circle cx="348.4" cy="300.6" r="5" fill="#2a9d8f" stroke="#52d9cb" stroke-width="0.8" opacity="0.85"/>
<circle cx="177.6" cy="207.2" r="5" fill="#e9c46a" stroke="#f4d792" stroke-width="0.8" opacity="0.85"/>
<circle cx="99.8" cy="205.2" r="5" fill="#e9c46a" stroke="#f4d792" stroke-width="0.8" opacity="0.85"/>
<circle cx="514.4" cy="207.1" r="5" fill="#e63946" stroke="#ff6b7a" stroke-width="0.8" opacity="0.85"/>
<circle cx="119.4" cy="126.6" r="5" fill="#e9c46a" stroke="#f4d792" stroke-width="0.8" opacity="0.85"/>
<circle cx="468.3" cy="182.9" r="5" fill="#e63946" stroke="#ff6b7a" stroke-width="0.8" opacity="0.85"/>
<circle cx="630.0" cy="120.3" r="5" fill="#e63946" stroke="#ff6b7a" stroke-width="0.8" opacity="0.85"/>
<circle cx="237.0" cy="351.4" r="5" fill="#2a9d8f" stroke="#52d9cb" stroke-width="0.8" opacity="0.85"/>
<circle cx="166.8" cy="142.7" r="5" fill="#e9c46a" stroke="#f4d792" stroke-width="0.8" opacity="0.85"/>
<circle cx="371.9" cy="382.0" r="5" fill="#2a9d8f" stroke="#52d9cb" stroke-width="0.8" opacity="0.85"/>
<circle cx="418.2" cy="231.0" r="5" fill="#e63946" stroke="#ff6b7a" stroke-width="0.8" opacity="0.85"/>
<circle cx="148.1" cy="197.5" r="5" fill="#e9c46a" stroke="#f4d792" stroke-width="0.8" opacity="0.85"/>
<circle cx="308.6" cy="396.6" r="5" fill="#2a9d8f" stroke="#52d9cb" stroke-width="0.8" opacity="0.85"/>
<circle cx="210.8" cy="285.0" r="5" fill="#2a9d8f" stroke="#52d9cb" stroke-width="0.8" opacity="0.85"/>
<circle cx="153.4" cy="88.9" r="5" fill="#e9c46a" stroke="#f4d792" stroke-width="0.8" opacity="0.85"/>
<circle cx="126.2" cy="203.9" r="5" fill="#e9c46a" stroke="#f4d792" stroke-width="0.8" opacity="0.85"/>
<circle cx="199.2" cy="175.9" r="5" fill="#e9c46a" stroke="#f4d792" stroke-width="0.8" opacity="0.85"/>
<circle cx="165.3" cy="200.7" r="5" fill="#e9c46a" stroke="#f4d792" stroke-width="0.8" opacity="0.85"/>
<circle cx="307.3" cy="370.7" r="5" fill="#2a9d8f" stroke="#52d9cb" stroke-width="0.8" opacity="0.85"/>
<circle cx="103.3" cy="173.7" r="5" fill="#e9c46a" stroke="#f4d792" stroke-width="0.8" opacity="0.85"/>
<circle cx="575.2" cy="174.0" r="5" fill="#e63946" stroke="#ff6b7a" stroke-width="0.8" opacity="0.85"/>
<circle cx="502.3" cy="183.2" r="5" fill="#e63946" stroke="#ff6b7a" stroke-width="0.8" opacity="0.85"/>
<circle cx="498.1" cy="184.8" r="5" fill="#e63946" stroke="#ff6b7a" stroke-width="0.8" opacity="0.85"/>
<circle cx="306.3" cy="393.1" r="5" fill="#2a9d8f" stroke="#52d9cb" stroke-width="0.8" opacity="0.85"/>
<circle cx="229.4" cy="212.0" r="5" fill="#e9c46a" stroke="#f4d792" stroke-width="0.8" opacity="0.85"/>
<circle cx="511.4" cy="234.5" r="5" fill="#e63946" stroke="#ff6b7a" stroke-width="0.8" opacity="0.85"/>
<circle cx="151.8" cy="172.9" r="5" fill="#e9c46a" stroke="#f4d792" stroke-width="0.8" opacity="0.85"/>
<circle cx="580.7" cy="93.8" r="5" fill="#e63946" stroke="#ff6b7a" stroke-width="0.8" opacity="0.85"/>
<circle cx="264.5" cy="316.0" r="5" fill="#2a9d8f" stroke="#52d9cb" stroke-width="0.8" opacity="0.85"/>
<circle cx="445.0" cy="138.1" r="5" fill="#e63946" stroke="#ff6b7a" stroke-width="0.8" opacity="0.85"/>
<circle cx="386.9" cy="362.7" r="5" fill="#2a9d8f" stroke="#52d9cb" stroke-width="0.8" opacity="0.85"/>
<circle cx="282.6" cy="386.2" r="5" fill="#2a9d8f" stroke="#52d9cb" stroke-width="0.8" opacity="0.85"/>
<circle cx="277.7" cy="346.3" r="5" fill="#2a9d8f" stroke="#52d9cb" stroke-width="0.8" opacity="0.85"/>
<circle cx="201.3" cy="163.0" r="5" fill="#e9c46a" stroke="#f4d792" stroke-width="0.8" opacity="0.85"/>
<circle cx="571.4" cy="166.8" r="5" fill="#e63946" stroke="#ff6b7a" stroke-width="0.8" opacity="0.85"/>
<circle cx="137.1" cy="202.3" r="5" fill="#e9c46a" stroke="#f4d792" stroke-width="0.8" opacity="0.85"/>
<circle cx="554.1" cy="169.8" r="5" fill="#e63946" stroke="#ff6b7a" stroke-width="0.8" opacity="0.85"/>
<circle cx="428.4" cy="333.2" r="5" fill="#2a9d8f" stroke="#52d9cb" stroke-width="0.8" opacity="0.85"/>
<circle cx="534.2" cy="149.7" r="5" fill="#e63946" stroke="#ff6b7a" stroke-width="0.8" opacity="0.85"/>
<circle cx="267.1" cy="396.1" r="5" fill="#2a9d8f" stroke="#52d9cb" stroke-width="0.8" opacity="0.85"/>
<circle cx="329.3" cy="377.1" r="5" fill="#2a9d8f" stroke="#52d9cb" stroke-width="0.8" opacity="0.85"/>
<circle cx="123.1" cy="133.5" r="5" fill="#e9c46a" stroke="#f4d792" stroke-width="0.8" opacity="0.85"/>
<circle cx="89.1" cy="212.8" r="5" fill="#e9c46a" stroke="#f4d792" stroke-width="0.8" opacity="0.85"/>
<circle cx="372.6" cy="341.3" r="5" fill="#2a9d8f" stroke="#52d9cb" stroke-width="0.8" opacity="0.85"/>
<circle cx="287.3" cy="299.8" r="5" fill="#2a9d8f" stroke="#52d9cb" stroke-width="0.8" opacity="0.85"/>
<circle cx="306.9" cy="360.1" r="5" fill="#2a9d8f" stroke="#52d9cb" stroke-width="0.8" opacity="0.85"/>
<circle cx="303.4" cy="400.6" r="5" fill="#2a9d8f" stroke="#52d9cb" stroke-width="0.8" opacity="0.85"/>
<circle cx="487.9" cy="180.5" r="5" fill="#e63946" stroke="#ff6b7a" stroke-width="0.8" opacity="0.85"/>
<circle cx="365.4" cy="355.7" r="5" fill="#2a9d8f" stroke="#52d9cb" stroke-width="0.8" opacity="0.85"/>
<circle cx="171.2" cy="172.1" r="5" fill="#e9c46a" stroke="#f4d792" stroke-width="0.8" opacity="0.85"/>
<circle cx="475.7" cy="248.3" r="5" fill="#e63946" stroke="#ff6b7a" stroke-width="0.8" opacity="0.85"/>
<circle cx="418.2" cy="379.8" r="5" fill="#2a9d8f" stroke="#52d9cb" stroke-width="0.8" opacity="0.85"/>
<circle cx="514.8" cy="193.1" r="5" fill="#e63946" stroke="#ff6b7a" stroke-width="0.8" opacity="0.85"/>
<circle cx="597.4" cy="181.5" r="5" fill="#e63946" stroke="#ff6b7a" stroke-width="0.8" opacity="0.85"/>
<circle cx="591.7" cy="107.5" r="5" fill="#e63946" stroke="#ff6b7a" stroke-width="0.8" opacity="0.85"/>
<circle cx="144.8" cy="109.6" r="5" fill="#e9c46a" stroke="#f4d792" stroke-width="0.8" opacity="0.85"/>
<circle cx="499.5" cy="196.6" r="5" fill="#e63946" stroke="#ff6b7a" stroke-width="0.8" opacity="0.85"/>
<circle cx="267.7" cy="371.1" r="5" fill="#2a9d8f" stroke="#52d9cb" stroke-width="0.8" opacity="0.85"/>
<circle cx="477.7" cy="265.4" r="5" fill="#e63946" stroke="#ff6b7a" stroke-width="0.8" opacity="0.85"/>
<circle cx="122.3" cy="206.2" r="5" fill="#e9c46a" stroke="#f4d792" stroke-width="0.8" opacity="0.85"/>
<circle cx="309.6" cy="252.0" r="5" fill="#2a9d8f" stroke="#52d9cb" stroke-width="0.8" opacity="0.85"/>
<circle cx="309.0" cy="370.7" r="5" fill="#2a9d8f" stroke="#52d9cb" stroke-width="0.8" opacity="0.85"/>
<circle cx="306.5" cy="386.3" r="5" fill="#2a9d8f" stroke="#52d9cb" stroke-width="0.8" opacity="0.85"/>
<circle cx="305.9" cy="357.9" r="5" fill="#2a9d8f" stroke="#52d9cb" stroke-width="0.8" opacity="0.85"/>
<circle cx="263.5" cy="357.5" r="5" fill="#2a9d8f" stroke="#52d9cb" stroke-width="0.8" opacity="0.85"/>
<circle cx="70.0" cy="153.4" r="5" fill="#e9c46a" stroke="#f4d792" stroke-width="0.8" opacity="0.85"/>
<circle cx="261.2" cy="357.9" r="5" fill="#2a9d8f" stroke="#52d9cb" stroke-width="0.8" opacity="0.85"/>
<circle cx="325.2" cy="339.7" r="5" fill="#2a9d8f" stroke="#52d9cb" stroke-width="0.8" opacity="0.85"/>
<circle cx="453.5" cy="272.9" r="5" fill="#e63946" stroke="#ff6b7a" stroke-width="0.8" opacity="0.85"/>
<circle cx="386.8" cy="392.1" r="5" fill="#2a9d8f" stroke="#52d9cb" stroke-width="0.8" opacity="0.85"/>
<circle cx="455.0" cy="203.1" r="5" fill="#e63946" stroke="#ff6b7a" stroke-width="0.8" opacity="0.85"/>
<circle cx="167.6" cy="181.5" r="5" fill="#e9c46a" stroke="#f4d792" stroke-width="0.8" opacity="0.85"/>
<circle cx="465.5" cy="256.1" r="5" fill="#e63946" stroke="#ff6b7a" stroke-width="0.8" opacity="0.85"/>
<circle cx="514.9" cy="158.1" r="5" fill="#e63946" stroke="#ff6b7a" stroke-width="0.8" opacity="0.85"/>
<circle cx="168.3" cy="247.5" r="5" fill="#e9c46a" stroke="#f4d792" stroke-width="0.8" opacity="0.85"/>
<circle cx="434.6" cy="331.0" r="5" fill="#2a9d8f" stroke="#52d9cb" stroke-width="0.8" opacity="0.85"/>
<circle cx="336.4" cy="350.5" r="5" fill="#2a9d8f" stroke="#52d9cb" stroke-width="0.8" opacity="0.85"/>
<circle cx="231.1" cy="301.7" r="5" fill="#2a9d8f" stroke="#52d9cb" stroke-width="0.8" opacity="0.85"/>
<circle cx="541.7" cy="221.0" r="5" fill="#e63946" stroke="#ff6b7a" stroke-width="0.8" opacity="0.85"/>
<circle cx="274.5" cy="317.1" r="5" fill="#2a9d8f" stroke="#52d9cb" stroke-width="0.8" opacity="0.85"/>
<circle cx="424.7" cy="349.4" r="5" fill="#2a9d8f" stroke="#52d9cb" stroke-width="0.8" opacity="0.85"/>
<circle cx="505.5" cy="153.0" r="5" fill="#e63946" stroke="#ff6b7a" stroke-width="0.8" opacity="0.85"/>
<circle cx="166.2" cy="194.8" r="5" fill="#e9c46a" stroke="#f4d792" stroke-width="0.8" opacity="0.85"/>
<circle cx="126.2" cy="109.0" r="5" fill="#e9c46a" stroke="#f4d792" stroke-width="0.8" opacity="0.85"/>
<circle cx="499.4" cy="129.5" r="5" fill="#e63946" stroke="#ff6b7a" stroke-width="0.8" opacity="0.85"/>
<circle cx="405.3" cy="321.7" r="5" fill="#2a9d8f" stroke="#52d9cb" stroke-width="0.8" opacity="0.85"/>
<circle cx="93.8" cy="127.4" r="5" fill="#e9c46a" stroke="#f4d792" stroke-width="0.8" opacity="0.85"/>
<circle cx="480.5" cy="182.9" r="5" fill="#e63946" stroke="#ff6b7a" stroke-width="0.8" opacity="0.85"/>
<circle cx="190.4" cy="70.0" r="5" fill="#e9c46a" stroke="#f4d792" stroke-width="0.8" opacity="0.85"/>
<circle cx="543.9" cy="191.7" r="5" fill="#e63946" stroke="#ff6b7a" stroke-width="0.8" opacity="0.85"/>
<circle cx="466.9" cy="244.1" r="5" fill="#e63946" stroke="#ff6b7a" stroke-width="0.8" opacity="0.85"/>
<circle cx="114.3" cy="135.4" r="5" fill="#e9c46a" stroke="#f4d792" stroke-width="0.8" opacity="0.85"/>
<circle cx="473.4" cy="184.5" r="5" fill="#e63946" stroke="#ff6b7a" stroke-width="0.8" opacity="0.85"/>
<rect x="532" y="74" width="100" height="84" rx="6" fill="#16213e" stroke="#444" stroke-width="1"/>
<circle cx="546" cy="90" r="5" fill="#e63946"/>
<text x="556" y="94" fill="#ccc" font-size="11">Class 1</text>
<circle cx="546" cy="114" r="5" fill="#2a9d8f"/>
<text x="556" y="118" fill="#ccc" font-size="11">Class 2</text>
<circle cx="546" cy="138" r="5" fill="#e9c46a"/>
<text x="556" y="142" fill="#ccc" font-size="11">Class 3</text>
</svg>