<svg xmlns="http://www.w3.org/2000/svg" width="700" height="520" style="background:#1a1a2e;font-family:monospace;">
<text x="350" y="28" text-anchor="middle" fill="#e0e0e0" font-size="16" font-weight="bold">LDA — Wine Dataset (Train)</text>
<line x1="70" y1="450" x2="630" y2="450" stroke="#555" stroke-width="1"/>
<line x1="70" y1="70" x2="70" y2="450" stroke="#555" stroke-width="1"/>
<text x="350" y="512" text-anchor="middle" fill="#aaa" font-size="12">LD1</text>
<text x="14" y="260" text-anchor="middle" fill="#aaa" font-size="12" transform="rotate(-90,14,260)">LD2</text>
<line x1="70" y1="70" x2="630" y2="70" stroke="#333" stroke-width="0.5" stroke-dasharray="4,4"/>
<line x1="70" y1="70" x2="70" y2="450" stroke="#333" stroke-width="0.5" stroke-dasharray="4,4"/>
<line x1="70" y1="165" x2="630" y2="165" stroke="#333" stroke-width="0.5" stroke-dasharray="4,4"/>
<line x1="210" y1="70" x2="210" y2="450" stroke="#333" stroke-width="0.5" stroke-dasharray="4,4"/>
<line x1="70" y1="260" x2="630" y2="260" stroke="#333" stroke-width="0.5" stroke-dasharray="4,4"/>
<line x1="350" y1="70" x2="350" y2="450" stroke="#333" stroke-width="0.5" stroke-dasharray="4,4"/>
<line x1="70" y1="355" x2="630" y2="355" stroke="#333" stroke-width="0.5" stroke-dasharray="4,4"/>
<line x1="490" y1="70" x2="490" y2="450" stroke="#333" stroke-width="0.5" stroke-dasharray="4,4"/>
<line x1="70" y1="450" x2="630" y2="450" stroke="#333" stroke-width="0.5" stroke-dasharray="4,4"/>
<line x1="630" y1="70" x2="630" y2="450" stroke="#333" stroke-width="0.5" stroke-dasharray="4,4"/>
<circle cx="340.6" cy="319.2" r="5" fill="#2a9d8f" stroke="#52d9cb" stroke-width="0.8" opacity="0.85"/>
<circle cx="358.3" cy="303.3" r="5" fill="#2a9d8f" stroke="#52d9cb" stroke-width="0.8" opacity="0.85"/>
<circle cx="630.0" cy="79.3" r="5" fill="#e63946" stroke="#ff6b7a" stroke-width="0.8" opacity="0.85"/>
<circle cx="482.5" cy="337.8" r="5" fill="#2a9d8f" stroke="#52d9cb" stroke-width="0.8" opacity="0.85"/>
<circle cx="608.4" cy="144.5" r="5" fill="#e63946" stroke="#ff6b7a" stroke-width="0.8" opacity="0.85"/>
<circle cx="142.9" cy="135.0" r="5" fill="#e9c46a" stroke="#f4d792" stroke-width="0.8" opacity="0.85"/>
<circle cx="459.3" cy="323.3" r="5" fill="#2a9d8f" stroke="#52d9cb" stroke-width="0.8" opacity="0.85"/>
<circle cx="527.7" cy="214.7" r="5" fill="#e63946" stroke="#ff6b7a" stroke-width="0.8" opacity="0.85"/>
<circle cx="548.7" cy="148.8" r="5" fill="#e63946" stroke="#ff6b7a" stroke-width="0.8" opacity="0.85"/>
<circle cx="353.6" cy="369.8" r="5" fill="#2a9d8f" stroke="#52d9cb" stroke-width="0.8" opacity="0.85"/>
<circle cx="612.4" cy="130.1" r="5" fill="#e63946" stroke="#ff6b7a" stroke-width="0.8" opacity="0.85"/>
<circle cx="524.8" cy="167.8" r="5" fill="#e63946" stroke="#ff6b7a" stroke-width="0.8" opacity="0.85"/>
<circle cx="539.3" cy="124.7" r="5" fill="#e63946" stroke="#ff6b7a" stroke-width="0.8" opacity="0.85"/>
<circle cx="605.7" cy="183.2" r="5" fill="#e63946" stroke="#ff6b7a" stroke-width="0.8" opacity="0.85"/>
<circle cx="592.4" cy="139.6" r="5" fill="#e63946" stroke="#ff6b7a" stroke-width="0.8" opacity="0.85"/>
<circle cx="78.3" cy="112.5" r="5" fill="#e9c46a" stroke="#f4d792" stroke-width="0.8" opacity="0.85"/>
<circle cx="392.5" cy="409.0" r="5" fill="#2a9d8f" stroke="#52d9cb" stroke-width="0.8" opacity="0.85"/>
<circle cx="534.9" cy="212.4" r="5" fill="#e63946" stroke="#ff6b7a" stroke-width="0.8" opacity="0.85"/>
<circle cx="101.0" cy="126.7" r="5" fill="#e9c46a" stroke="#f4d792" stroke-width="0.8" opacity="0.85"/>
<circle cx="590.3" cy="100.4" r="5" fill="#e63946" stroke="#ff6b7a" stroke-width="0.8" opacity="0.85"/>
<circle cx="511.4" cy="174.0" r="5" fill="#e63946" stroke="#ff6b7a" stroke-width="0.8" opacity="0.85"/>
<circle cx="267.4" cy="248.8" r="5" fill="#2a9d8f" stroke="#52d9cb" stroke-width="0.8" opacity="0.85"/>
<circle cx="521.3" cy="174.8" r="5" fill="#e63946" stroke="#ff6b7a" stroke-width="0.8" opacity="0.85"/>
<circle cx="379.6" cy="372.2" r="5" fill="#2a9d8f" stroke="#52d9cb" stroke-width="0.8" opacity="0.85"/>
<circle cx="198.2" cy="195.9" r="5" fill="#e9c46a" stroke="#f4d792" stroke-width="0.8" opacity="0.85"/>
<circle cx="555.9" cy="188.4" r="5" fill="#e63946" stroke="#ff6b7a" stroke-width="0.8" opacity="0.85"/>
<circle cx="497.2" cy="236.8" r="5" fill="#e63946" stroke="#ff6b7a" stroke-width="0.8" opacity="0.85"/>
<circle cx="461.3" cy="184.1" r="5" fill="#e63946" stroke="#ff6b7a" stroke-width="0.8" opacity="0.85"/>
<circle cx="437.6" cy="207.5" r="5" fill="#e63946" stroke="#ff6b7a" stroke-width="0.8" opacity="0.85"/>
<circle cx="387.3" cy="293.9" r="5" fill="#2a9d8f" stroke="#52d9cb" stroke-width="0.8" opacity="0.85"/>
<circle cx="369.2" cy="281.2" r="5" fill="#2a9d8f" stroke="#52d9cb" stroke-width="0.8" opacity="0.85"/>
<circle cx="121.1" cy="212.8" r="5" fill="#e9c46a" stroke="#f4d792" stroke-width="0.8" opacity="0.85"/>
<circle cx="346.5" cy="351.8" r="5" fill="#2a9d8f" stroke="#52d9cb" stroke-width="0.8" opacity="0.85"/>
<circle cx="475.5" cy="176.5" r="5" fill="#e63946" stroke="#ff6b7a" stroke-width="0.8" opacity="0.85"/>
<circle cx="399.1" cy="306.7" r="5" fill="#2a9d8f" stroke="#52d9cb" stroke-width="0.8" opacity="0.85"/>
<circle cx="224.5" cy="186.2" r="5" fill="#e9c46a" stroke="#f4d792" stroke-width="0.8" opacity="0.85"/>
<circle cx="536.2" cy="133.2" r="5" fill="#e63946" stroke="#ff6b7a" stroke-width="0.8" opacity="0.85"/>
<circle cx="102.5" cy="152.1" r="5" fill="#e9c46a" stroke="#f4d792" stroke-width="0.8" opacity="0.85"/>
<circle cx="540.7" cy="153.6" r="5" fill="#e63946" stroke="#ff6b7a" stroke-width="0.8" opacity="0.85"/>
<circle cx="144.1" cy="141.2" r="5" fill="#e9c46a" stroke="#f4d792" stroke-width="0.8" opacity="0.85"/>
<circle cx="510.8" cy="162.1" r="5" fill="#e63946" stroke="#ff6b7a" stroke-width="0.8" opacity="0.85"/>
<circle cx="188.0" cy="189.2" r="5" fill="#e9c46a" stroke="#f4d792" stroke-width="0.8" opacity="0.85"/>
<circle cx="509.1" cy="236.0" r="5" fill="#e63946" stroke="#ff6b7a" stroke-width="0.8" opacity="0.85"/>
<circle cx="137.8" cy="90.7" r="5" fill="#e9c46a" stroke="#f4d792" stroke-width="0.8" opacity="0.85"/>
<circle cx="341.1" cy="242.7" r="5" fill="#2a9d8f" stroke="#52d9cb" stroke-width="0.8" opacity="0.85"/>
<circle cx="205.0" cy="216.2" r="5" fill="#e9c46a" stroke="#f4d792" stroke-width="0.8" opacity="0.85"/>
<circle cx="522.1" cy="177.9" r="5" fill="#e63946" stroke="#ff6b7a" stroke-width="0.8" opacity="0.85"/>
<circle cx="193.3" cy="207.3" r="5" fill="#e9c46a" stroke="#f4d792" stroke-width="0.8" opacity="0.85"/>
<circle cx="358.4" cy="345.0" r="5" fill="#2a9d8f" stroke="#52d9cb" stroke-width="0.8" opacity="0.85"/>
<circle cx="204.5" cy="175.7" r="5" fill="#e9c46a" stroke="#f4d792" stroke-width="0.8" opacity="0.85"/>
<circle cx="534.6" cy="213.5" r="5" fill="#e63946" stroke="#ff6b7a" stroke-width="0.8" opacity="0.85"/>
<circle cx="121.0" cy="175.8" r="5" fill="#e9c46a" stroke="#f4d792" stroke-width="0.8" opacity="0.85"/>
<circle cx="165.5" cy="203.0" r="5" fill="#e9c46a" stroke="#f4d792" stroke-width="0.8" opacity="0.85"/>
<circle cx="406.3" cy="308.1" r="5" fill="#2a9d8f" stroke="#52d9cb" stroke-width="0.8" opacity="0.85"/>
<circle cx="271.3" cy="269.9" r="5" fill="#2a9d8f" stroke="#52d9cb" stroke-width="0.8" opacity="0.85"/>
<circle cx="549.1" cy="165.5" r="5" fill="#e63946" stroke="#ff6b7a" stroke-width="0.8" opacity="0.85"/>
<circle cx="417.4" cy="341.9" r="5" fill="#2a9d8f" stroke="#52d9cb" stroke-width="0.8" opacity="0.85"/>
<circle cx="389.7" cy="340.3" r="5" fill="#2a9d8f" stroke="#52d9cb" stroke-width="0.8" opacity="0.85"/>
<circle cx="124.4" cy="229.6" r="5" fill="#e9c46a" stroke="#f4d792" stroke-width="0.8" opacity="0.85"/>
<circle cx="109.2" cy="185.0" r="5" fill="#e9c46a" stroke="#f4d792" stroke-width="0.8" opacity="0.85"/>
<circle cx="161.7" cy="238.1" r="5" fill="#e9c46a" stroke="#f4d792" stroke-width="0.8" opacity="0.85"/>
<circle cx="95.9" cy="136.9" r="5" fill="#e9c46a" stroke="#f4d792" stroke-width="0.8" opacity="0.85"/>
<circle cx="593.6" cy="130.8" r="5" fill="#e63946" stroke="#ff6b7a" stroke-width="0.8" opacity="0.85"/>
<circle cx="366.0" cy="294.3" r="5" fill="#2a9d8f" stroke="#52d9cb" stroke-width="0.8" opacity="0.85"/>
<circle cx="427.6" cy="309.1" r="5" fill="#2a9d8f" stroke="#52d9cb" stroke-width="0.8" opacity="0.85"/>
<circle cx="195.1" cy="159.7" r="5" fill="#e9c46a" stroke="#f4d792" stroke-width="0.8" opacity="0.85"/>
<circle cx="442.6" cy="309.5" r="5" fill="#2a9d8f" stroke="#52d9cb" stroke-width="0.8" opacity="0.85"/>
<circle cx="166.4" cy="148.1" r="5" fill="#e9c46a" stroke="#f4d792" stroke-width="0.8" opacity="0.85"/>
<circle cx="539.4" cy="186.8" r="5" fill="#e63946" stroke="#ff6b7a" stroke-width="0.8" opacity="0.85"/>
<circle cx="519.3" cy="139.4" r="5" fill="#e63946" stroke="#ff6b7a" stroke-width="0.8" opacity="0.85"/>
<circle cx="267.9" cy="258.3" r="5" fill="#2a9d8f" stroke="#52d9cb" stroke-width="0.8" opacity="0.85"/>
<circle cx="348.5" cy="350.4" r="5" fill="#2a9d8f" stroke="#52d9cb" stroke-width="0.8" opacity="0.85"/>
<circle cx="344.0" cy="337.4" r="5" fill="#2a9d8f" stroke="#52d9cb" stroke-width="0.8" opacity="0.85"/>
<circle cx="548.0" cy="138.9" r="5" fill="#e63946" stroke="#ff6b7a" stroke-width="0.8" opacity="0.85"/>
<circle cx="105.6" cy="128.3" r="5" fill="#e9c46a" stroke="#f4d792" stroke-width="0.8" opacity="0.85"/>
<circle cx="410.3" cy="293.6" r="5" fill="#2a9d8f" stroke="#52d9cb" stroke-width="0.8" opacity="0.85"/>
<circle cx="313.3" cy="289.8" r="5" fill="#2a9d8f" stroke="#52d9cb" stroke-width="0.8" opacity="0.85"/>
<circle cx="548.8" cy="126.5" r="5" fill="#e63946" stroke="#ff6b7a" stroke-width="0.8" opacity="0.85"/>
<circle cx="390.2" cy="330.3" r="5" fill="#2a9d8f" stroke="#52d9cb" stroke-width="0.8" opacity="0.85"/>
<circle cx="451.9" cy="306.3" r="5" fill="#2a9d8f" stroke="#52d9cb" stroke-width="0.8" opacity="0.85"/>
<circle cx="115.2" cy="118.6" r="5" fill="#e9c46a" stroke="#f4d792" stroke-width="0.8" opacity="0.85"/>
<circle cx="162.6" cy="227.1" r="5" fill="#e9c46a" stroke="#f4d792" stroke-width="0.8" opacity="0.85"/>
<circle cx="556.1" cy="138.5" r="5" fill="#e63946" stroke="#ff6b7a" stroke-width="0.8" opacity="0.85"/>
<circle cx="324.5" cy="369.1" r="5" fill="#2a9d8f" stroke="#52d9cb" stroke-width="0.8" opacity="0.85"/>
<circle cx="156.5" cy="176.7" r="5" fill="#e9c46a" stroke="#f4d792" stroke-width="0.8" opacity="0.85"/>
<circle cx="396.5" cy="358.9" r="5" fill="#2a9d8f" stroke="#52d9cb" stroke-width="0.8" opacity="0.85"/>
<circle cx="577.5" cy="88.2" r="5" fill="#e63946" stroke="#ff6b7a" stroke-width="0.8" opacity="0.85"/>
<circle cx="113.2" cy="159.8" r="5" fill="#e9c46a" stroke="#f4d792" stroke-width="0.8" opacity="0.85"/>
<circle cx="517.3" cy="176.3" r="5" fill="#e63946" stroke="#ff6b7a" stroke-width="0.8" opacity="0.85"/>
<circle cx="359.7" cy="334.2" r="5" fill="#2a9d8f" stroke="#52d9cb" stroke-width="0.8" opacity="0.85"/>
<circle cx="547.6" cy="160.5" r="5" fill="#e63946" stroke="#ff6b7a" stroke-width="0.8" opacity="0.85"/>
<circle cx="154.5" cy="219.5" r="5" fill="#e9c46a" stroke="#f4d792" stroke-width="0.8" opacity="0.85"/>
<circle cx="295.6" cy="319.5" r="5" fill="#2a9d8f" stroke="#52d9cb" stroke-width="0.8" opacity="0.85"/>
<circle cx="460.9" cy="364.0" r="5" fill="#2a9d8f" stroke="#52d9cb" stroke-width="0.8" opacity="0.85"/>
<circle cx="571.3" cy="70.0" r="5" fill="#e63946" stroke="#ff6b7a" stroke-width="0.8" opacity="0.85"/>
<circle cx="358.1" cy="303.1" r="5" fill="#2a9d8f" stroke="#52d9cb" stroke-width="0.8" opacity="0.85"/>
<circle cx="536.4" cy="132.1" r="5" fill="#e63946" stroke="#ff6b7a" stroke-width="0.8" opacity="0.85"/>
<circle cx="324.3" cy="299.7" r="5" fill="#2a9d8f" stroke="#52d9cb" stroke-width="0.8" opacity="0.85"/>
<circle cx="325.0" cy="361.9" r="5" fill="#2a9d8f" stroke="#52d9cb" stroke-width="0.8" opacity="0.85"/>
<circle cx="405.8" cy="312.4" r="5" fill="#2a9d8f" stroke="#52d9cb" stroke-width="0.8" opacity="0.85"/>
<circle cx="70.0" cy="174.4" r="5" fill="#e9c46a" stroke="#f4d792" stroke-width="0.8" opacity="0.85"/>
<circle cx="516.0" cy="198.9" r="5" fill="#e63946" stroke="#ff6b7a" stroke-width="0.8" opacity="0.85"/>
<circle cx="327.7" cy="291.2" r="5" fill="#2a9d8f" stroke="#52d9cb" stroke-width="0.8" opacity="0.85"/>
<circle cx="158.8" cy="193.1" r="5" fill="#e9c46a" stroke="#f4d792" stroke-width="0.8" opacity="0.85"/>
<circle cx="415.0" cy="355.6" r="5" fill="#2a9d8f" stroke="#52d9cb" stroke-width="0.8" opacity="0.85"/>
<circle cx="373.8" cy="375.9" r="5" fill="#2a9d8f" stroke="#52d9cb" stroke-width="0.8" opacity="0.85"/>
<circle cx="420.5" cy="269.1" r="5" fill="#2a9d8f" stroke="#52d9cb" stroke-width="0.8" opacity="0.85"/>
<circle cx="224.8" cy="152.6" r="5" fill="#e9c46a" stroke="#f4d792" stroke-width="0.8" opacity="0.85"/>
<circle cx="96.8" cy="140.2" r="5" fill="#e9c46a" stroke="#f4d792" stroke-width="0.8" opacity="0.85"/>
<circle cx="427.5" cy="283.9" r="5" fill="#2a9d8f" stroke="#52d9cb" stroke-width="0.8" opacity="0.85"/>
<circle cx="325.5" cy="355.8" r="5" fill="#2a9d8f" stroke="#52d9cb" stroke-width="0.8" opacity="0.85"/>
<circle cx="165.7" cy="188.7" r="5" fill="#e9c46a" stroke="#f4d792" stroke-width="0.8" opacity="0.85"/>
<circle cx="283.1" cy="377.1" r="5" fill="#2a9d8f" stroke="#52d9cb" stroke-width="0.8" opacity="0.85"/>
<circle cx="170.1" cy="237.1" r="5" fill="#e9c46a" stroke="#f4d792" stroke-width="0.8" opacity="0.85"/>
<circle cx="404.1" cy="337.7" r="5" fill="#2a9d8f" stroke="#52d9cb" stroke-width="0.8" opacity="0.85"/>
<circle cx="455.1" cy="279.0" r="5" fill="#2a9d8f" stroke="#52d9cb" stroke-width="0.8" opacity="0.85"/>
<circle cx="363.5" cy="315.6" r="5" fill="#2a9d8f" stroke="#52d9cb" stroke-width="0.8" opacity="0.85"/>
<circle cx="371.7" cy="323.1" r="5" fill="#2a9d8f" stroke="#52d9cb" stroke-width="0.8" opacity="0.85"/>
<circle cx="407.5" cy="319.3" r="5" fill="#2a9d8f" stroke="#52d9cb" stroke-width="0.8" opacity="0.85"/>
<circle cx="331.8" cy="357.2" r="5" fill="#2a9d8f" stroke="#52d9cb" stroke-width="0.8" opacity="0.85"/>
<circle cx="570.0" cy="106.5" r="5" fill="#e63946" stroke="#ff6b7a" stroke-width="0.8" opacity="0.85"/>
<circle cx="505.5" cy="164.9" r="5" fill="#e63946" stroke="#ff6b7a" stroke-width="0.8" opacity="0.85"/>
<circle cx="354.6" cy="343.8" r="5" fill="#2a9d8f" stroke="#52d9cb" stroke-width="0.8" opacity="0.85"/>
<circle cx="98.1" cy="172.0" r="5" fill="#e9c46a" stroke="#f4d792" stroke-width="0.8" opacity="0.85"/>
<circle cx="560.7" cy="136.7" r="5" fill="#e63946" stroke="#ff6b7a" stroke-width="0.8" opacity="0.85"/>
<circle cx="127.1" cy="150.2" r="5" fill="#e9c46a" stroke="#f4d792" stroke-width="0.8" opacity="0.85"/>
<circle cx="103.1" cy="145.8" r="5" fill="#e9c46a" stroke="#f4d792" stroke-width="0.8" opacity="0.85"/>
<circle cx="84.2" cy="114.3" r="5" fill="#e9c46a" stroke="#f4d792" stroke-width="0.8" opacity="0.85"/>
<circle cx="385.3" cy="450.0" r="5" fill="#2a9d8f" stroke="#52d9cb" stroke-width="0.8" opacity="0.85"/>
<circle cx="345.6" cy="315.2" r="5" fill="#2a9d8f" stroke="#52d9cb" stroke-width="0.8" opacity="0.85"/>
<circle cx="464.2" cy="216.4" r="5" fill="#e63946" stroke="#ff6b7a" stroke-width="0.8" opacity="0.85"/>
<circle cx="242.4" cy="293.8" r="5" fill="#2a9d8f" stroke="#52d9cb" stroke-width="0.8" opacity="0.85"/>
<circle cx="556.5" cy="206.6" r="5" fill="#e63946" stroke="#ff6b7a" stroke-width="0.8" opacity="0.85"/>
<rect x="532" y="74" width="100" height="84" rx="6" fill="#16213e" stroke="#444" stroke-width="1"/>
<circle cx="546" cy="90" r="5" fill="#e63946"/>
<text x="556" y="94" fill="#ccc" font-size="11">Class 1</text>
<circle cx="546" cy="114" r="5" fill="#2a9d8f"/>
<text x="556" y="118" fill="#ccc" font-size="11">Class 2</text>
<circle cx="546" cy="138" r="5" fill="#e9c46a"/>
<text x="556" y="142" fill="#ccc" font-size="11">Class 3</text>
</svg>