<svg xmlns="http://www.w3.org/2000/svg" viewBox="0 0 800 500" width="800" height="500">
  <rect width="800" height="500" fill="#1a1a2e"/>
  <text x="400.0" y="35" fill="#ffffff" font-family="sans-serif" font-size="24" font-weight="bold" text-anchor="middle">Shrinkage (α) vs Accuracy</text>
  <g stroke="#ffffff" stroke-opacity="0.2" stroke-width="1">
    <line x1="80" y1="440.0" x2="760" y2="440.0"/>
    <text x="70" y="445.0" fill="#a0a0b0" font-family="sans-serif" font-size="14" text-anchor="end">0.635</text>
    <line x1="80" y1="364.0" x2="760" y2="364.0"/>
    <text x="70" y="369.0" fill="#a0a0b0" font-family="sans-serif" font-size="14" text-anchor="end">0.708</text>
    <line x1="80" y1="288.0" x2="760" y2="288.0"/>
    <text x="70" y="293.0" fill="#a0a0b0" font-family="sans-serif" font-size="14" text-anchor="end">0.781</text>
    <line x1="80" y1="212.0" x2="760" y2="212.0"/>
    <text x="70" y="217.0" fill="#a0a0b0" font-family="sans-serif" font-size="14" text-anchor="end">0.854</text>
    <line x1="80" y1="136.0" x2="760" y2="136.0"/>
    <text x="70" y="141.0" fill="#a0a0b0" font-family="sans-serif" font-size="14" text-anchor="end">0.927</text>
    <line x1="80" y1="60.0" x2="760" y2="60.0"/>
    <text x="70" y="65.0" fill="#a0a0b0" font-family="sans-serif" font-size="14" text-anchor="end">1.000</text>
    <line x1="80.0" y1="60" x2="80.0" y2="440"/>
    <text x="80.0" y="465" fill="#a0a0b0" font-family="sans-serif" font-size="14" text-anchor="middle">0.0</text>
    <line x1="148.0" y1="60" x2="148.0" y2="440"/>
    <text x="148.0" y="465" fill="#a0a0b0" font-family="sans-serif" font-size="14" text-anchor="middle">0.1</text>
    <line x1="216.0" y1="60" x2="216.0" y2="440"/>
    <text x="216.0" y="465" fill="#a0a0b0" font-family="sans-serif" font-size="14" text-anchor="middle">0.2</text>
    <line x1="284.0" y1="60" x2="284.0" y2="440"/>
    <text x="284.0" y="465" fill="#a0a0b0" font-family="sans-serif" font-size="14" text-anchor="middle">0.3</text>
    <line x1="352.0" y1="60" x2="352.0" y2="440"/>
    <text x="352.0" y="465" fill="#a0a0b0" font-family="sans-serif" font-size="14" text-anchor="middle">0.4</text>
    <line x1="420.0" y1="60" x2="420.0" y2="440"/>
    <text x="420.0" y="465" fill="#a0a0b0" font-family="sans-serif" font-size="14" text-anchor="middle">0.5</text>
    <line x1="488.0" y1="60" x2="488.0" y2="440"/>
    <text x="488.0" y="465" fill="#a0a0b0" font-family="sans-serif" font-size="14" text-anchor="middle">0.6</text>
    <line x1="556.0" y1="60" x2="556.0" y2="440"/>
    <text x="556.0" y="465" fill="#a0a0b0" font-family="sans-serif" font-size="14" text-anchor="middle">0.7</text>
    <line x1="624.0" y1="60" x2="624.0" y2="440"/>
    <text x="624.0" y="465" fill="#a0a0b0" font-family="sans-serif" font-size="14" text-anchor="middle">0.8</text>
    <line x1="692.0" y1="60" x2="692.0" y2="440"/>
    <text x="692.0" y="465" fill="#a0a0b0" font-family="sans-serif" font-size="14" text-anchor="middle">0.9</text>
    <line x1="760.0" y1="60" x2="760.0" y2="440"/>
    <text x="760.0" y="465" fill="#a0a0b0" font-family="sans-serif" font-size="14" text-anchor="middle">1.0</text>
  </g>
  <text x="400.0" y="485" fill="#ffffff" font-family="sans-serif" font-size="16" text-anchor="middle">Shrinkage (α)</text>
  <text x="25" y="250.0" fill="#ffffff" font-family="sans-serif" font-size="16" text-anchor="middle" transform="rotate(-90 25 250.0)">Cross-Validation Accuracy</text>
  <path d="M 80.0 71.56906445408623 L 148.0 71.56906445408623 L 216.0 65.62385077629193 L 284.0 82.80783925940614 L 352.0 82.80783925940614 L 420.0 82.80783925940614 L 488.0 88.92791216301794 L 556.0 88.92791216301794 L 624.0 88.92791216301794 L 692.0 88.92791216301794 L 760.0 405.96580461602656" fill="none" stroke="#52d9cb" stroke-width="3"/>
  <circle cx="80.0" cy="71.56906445408623" r="4" fill="#52d9cb"/>
  <circle cx="148.0" cy="71.56906445408623" r="4" fill="#52d9cb"/>
  <circle cx="216.0" cy="65.62385077629193" r="6" fill="#ff6b7a"/>
  <circle cx="284.0" cy="82.80783925940614" r="4" fill="#52d9cb"/>
  <circle cx="352.0" cy="82.80783925940614" r="4" fill="#52d9cb"/>
  <circle cx="420.0" cy="82.80783925940614" r="4" fill="#52d9cb"/>
  <circle cx="488.0" cy="88.92791216301794" r="4" fill="#52d9cb"/>
  <circle cx="556.0" cy="88.92791216301794" r="4" fill="#52d9cb"/>
  <circle cx="624.0" cy="88.92791216301794" r="4" fill="#52d9cb"/>
  <circle cx="692.0" cy="88.92791216301794" r="4" fill="#52d9cb"/>
  <circle cx="760.0" cy="405.96580461602656" r="4" fill="#52d9cb"/>
</svg>